<svg xmlns="http://www.w3.org/2000/svg" width="34" height="30" viewBox="0 0 34 30">
  <g id="building-4" transform="translate(-620 -190.01)">
    <path id="Vector" d="M0,0H32" transform="translate(621 218.995)" fill="none" stroke="#fff" stroke-linecap="round" stroke-linejoin="round" stroke-width="2"/>
    <path id="Vector-2" data-name="Vector" d="M0,6.573V0" transform="translate(648.316 212.437)" fill="none" stroke="#fff" stroke-linecap="round" stroke-linejoin="round" stroke-width="2"/>
    <path id="Vector-3" data-name="Vector" d="M3.2,0A3.212,3.212,0,0,0,0,3.242V6.587a3.2,3.2,0,1,0,6.4,0V3.242A3.212,3.212,0,0,0,3.2,0Z" transform="translate(645.145 202.623)" fill="none" stroke="#fff" stroke-linecap="round" stroke-linejoin="round" stroke-width="2"/>
    <path id="Vector-4" data-name="Vector" d="M0,27.985V4.451C0,1.488,1.455,0,4.349,0h9.062c2.895,0,4.335,1.488,4.335,4.451V27.985" transform="translate(622.6 191.01)" fill="none" stroke="#fff" stroke-linecap="round" stroke-linejoin="round" stroke-width="2"/>
    <path id="Vector-5" data-name="Vector" d="M0,0H7.2" transform="translate(627.982 198.732)" fill="none" stroke="#fff" stroke-linecap="round" stroke-linejoin="round" stroke-width="2"/>
    <path id="Vector-6" data-name="Vector" d="M0,0H7.2" transform="translate(627.982 204.258)" fill="none" stroke="#fff" stroke-linecap="round" stroke-linejoin="round" stroke-width="2"/>
    <path id="Vector-7" data-name="Vector" d="M0,5.526V0" transform="translate(631.545 213.469)" fill="none" stroke="#fff" stroke-linecap="round" stroke-linejoin="round" stroke-width="2"/>
  </g>
</svg>
