<svg xmlns="http://www.w3.org/2000/svg" width="34.005" height="32" viewBox="0 0 34.005 32">
  <g id="car" transform="translate(-179.999 -189.83)">
    <path id="Vector" d="M18.418,0H7.185C3.2,0,2.32,1.941,1.808,4.319L0,12.786H25.6L23.795,4.319C23.283,1.941,22.4,0,18.418,0Z" transform="translate(184.2 190.83)" fill="none" stroke="#fff" stroke-linecap="round" stroke-linejoin="round" stroke-width="2"/>
    <path id="Vector-2" data-name="Vector" d="M31.986,13.8a3.181,3.181,0,0,1-3.248,3.412H25.729c-1.728,0-1.968-.72-2.272-1.612l-.32-.939c-.448-1.283-.736-2.144-3.04-2.144H11.9c-2.3,0-2.64.97-3.04,2.144l-.32.939c-.3.892-.544,1.612-2.272,1.612H3.262A3.181,3.181,0,0,1,.014,13.8l.9-9.531C1.134,1.925,1.6,0,5.791,0H26.209C30.4,0,30.866,1.925,31.09,4.272Z" transform="translate(181.001 203.616)" fill="none" stroke="#fff" stroke-linecap="round" stroke-linejoin="round" stroke-width="2"/>
    <path id="Vector-3" data-name="Vector" d="M1.6,0H0" transform="translate(182.599 198.921)" fill="none" stroke="#fff" stroke-linecap="round" stroke-linejoin="round" stroke-width="2"/>
    <path id="Vector-4" data-name="Vector" d="M1.6,0H0" transform="translate(209.803 198.921)" fill="none" stroke="#fff" stroke-linecap="round" stroke-linejoin="round" stroke-width="2"/>
    <path id="Vector-5" data-name="Vector" d="M0,0V3.13" transform="translate(197.001 191.096)" fill="none" stroke="#fff" stroke-linecap="round" stroke-linejoin="round" stroke-width="2"/>
    <path id="Vector-6" data-name="Vector" d="M0,0H4.8" transform="translate(194.601 194.226)" fill="none" stroke="#fff" stroke-linecap="round" stroke-linejoin="round" stroke-width="2"/>
    <path id="Vector-7" data-name="Vector" d="M0,0H4.8" transform="translate(187.4 209.875)" fill="none" stroke="#fff" stroke-linecap="round" stroke-linejoin="round" stroke-width="2"/>
    <path id="Vector-8" data-name="Vector" d="M0,0H4.8" transform="translate(201.802 209.875)" fill="none" stroke="#fff" stroke-linecap="round" stroke-linejoin="round" stroke-width="2"/>
  </g>
</svg>
