<svg xmlns="http://www.w3.org/2000/svg" width="32.5" height="32.5" viewBox="0 0 32.5 32.5">
  <g id="destination" transform="translate(0.017 0.25)">
    <g id="Group_1090" data-name="Group 1090" transform="translate(0.233 9.619)">
      <g id="Group_1089" data-name="Group 1089">
        <path id="Path_212" data-name="Path 212" d="M8.086,153.9a7.858,7.858,0,0,0-7.853,7.846c0,2.686,1.279,5.574,3.8,8.584.375.447.748.862,1.107,1.24-1.629.444-2.606,1.242-2.606,2.173,0,1.649,2.86,2.538,5.551,2.538s5.551-.89,5.551-2.538c0-.931-.978-1.729-2.605-2.173a25.552,25.552,0,0,0,2.014-2.393.469.469,0,0,0-.756-.557,25.2,25.2,0,0,1-2.426,2.8.469.469,0,0,0-.2.2c-.678.666-1.249,1.16-1.573,1.43-.32-.267-.882-.754-1.552-1.412a.47.47,0,0,0-.235-.234c-2.127-2.138-5.127-5.831-5.127-9.662a6.914,6.914,0,0,1,13.827,0,10.565,10.565,0,0,1-1.686,5.339.47.47,0,0,0,.807.48,11.477,11.477,0,0,0,1.818-5.819A7.858,7.858,0,0,0,8.086,153.9ZM7.8,174.031a.47.47,0,0,0,.575,0,23.868,23.868,0,0,0,1.889-1.678c1.584.323,2.436.944,2.436,1.392,0,.334-.458.728-1.2,1.029a9.371,9.371,0,0,1-3.416.571c-2.815,0-4.612-.948-4.612-1.6,0-.448.852-1.069,2.437-1.392A23.865,23.865,0,0,0,7.8,174.031Z" transform="translate(-0.233 -153.902)" fill="#fff" stroke="#fff" stroke-width="0.5"/>
      </g>
    </g>
    <g id="Group_1092" data-name="Group 1092" transform="translate(4.672 14.053)">
      <g id="Group_1091" data-name="Group 1091">
        <path id="Path_213" data-name="Path 213" d="M74.6,224.854a3.389,3.389,0,0,0-2.043.678.469.469,0,1,0,.562.752,2.465,2.465,0,1,1-.9,1.3.47.47,0,0,0-.9-.259,3.415,3.415,0,1,0,3.282-2.469Z" transform="translate(-71.187 -224.854)" fill="#fff" stroke="#fff" stroke-width="0.5"/>
      </g>
    </g>
    <g id="Group_1094" data-name="Group 1094" transform="translate(19.944 0)">
      <g id="Group_1093" data-name="Group 1093">
        <path id="Path_214" data-name="Path 214" d="M323.937,13.633c.239-.256.485-.532.732-.827,1.955-2.333,2.947-4.576,2.947-6.667a6.146,6.146,0,0,0-11.806-2.39.47.47,0,0,0,.865.366,5.207,5.207,0,0,1,10,2.024c0,3.878-4.075,7.593-5.205,8.548-.249-.21-.641-.555-1.1-1a.469.469,0,0,0-.209-.207c-1.622-1.631-3.895-4.436-3.895-7.336a.47.47,0,0,0-.939,0c0,2.091.991,4.334,2.947,6.667.247.294.493.57.732.826-1.211.363-1.91.982-1.91,1.727,0,.628.51,1.182,1.436,1.559a8.88,8.88,0,0,0,5.878,0c.926-.377,1.436-.931,1.436-1.559C325.846,14.616,325.147,14,323.937,13.633Zm-2.466,2.848c-2.223,0-3.436-.74-3.436-1.121,0-.248.552-.7,1.73-.952a18.349,18.349,0,0,0,1.419,1.258.47.47,0,0,0,.575,0,18.313,18.313,0,0,0,1.419-1.258,4.308,4.308,0,0,1,1.3.469c.27.165.432.345.432.483C324.907,15.74,323.694,16.48,321.471,16.48Z" transform="translate(-315.327 0)" fill="#fff" stroke="#fff" stroke-width="0.5"/>
      </g>
    </g>
    <g id="Group_1096" data-name="Group 1096" transform="translate(23.356 3.408)">
      <g id="Group_1095" data-name="Group 1095">
        <path id="Path_215" data-name="Path 215" d="M372.592,54.532a2.731,2.731,0,1,0,2.733,2.731A2.735,2.735,0,0,0,372.592,54.532Zm0,4.522a1.792,1.792,0,1,1,1.794-1.792A1.795,1.795,0,0,1,372.592,59.055Z" transform="translate(-369.859 -54.532)" fill="#fff" stroke="#fff" stroke-width="0.5"/>
      </g>
    </g>
    <g id="Group_1098" data-name="Group 1098" transform="translate(18.908 14.89)">
      <g id="Group_1097" data-name="Group 1097">
        <path id="Path_216" data-name="Path 216" d="M299.841,238.239h-.214a3.549,3.549,0,0,0-.467.031.469.469,0,1,0,.124.93,2.614,2.614,0,0,1,.343-.023h.214a.469.469,0,1,0,0-.939Z" transform="translate(-298.753 -238.239)" fill="#fff" stroke="#fff" stroke-width="0.5"/>
      </g>
    </g>
    <g id="Group_1100" data-name="Group 1100" transform="translate(17.353 28.968)">
      <g id="Group_1099" data-name="Group 1099">
        <path id="Path_217" data-name="Path 217" d="M275,463.5h0l-.62,0a.469.469,0,0,0,0,.939h0l.62,0a.469.469,0,0,0,0-.939Z" transform="translate(-273.911 -463.496)" fill="#fff" stroke="#fff" stroke-width="0.5"/>
      </g>
    </g>
    <g id="Group_1102" data-name="Group 1102" transform="translate(19.464 20.968)">
      <g id="Group_1101" data-name="Group 1101">
        <path id="Path_218" data-name="Path 218" d="M308.732,335.489h-.62a.469.469,0,1,0,0,.938h.62a.469.469,0,1,0,0-.938Z" transform="translate(-307.642 -335.489)" fill="#fff" stroke="#fff" stroke-width="0.5"/>
      </g>
    </g>
    <g id="Group_1104" data-name="Group 1104" transform="translate(16.84 15.695)">
      <g id="Group_1103" data-name="Group 1103">
        <path id="Path_219" data-name="Path 219" d="M266.923,251.271a.47.47,0,0,0-.664-.027,3.529,3.529,0,0,0-.473.535.47.47,0,0,0,.763.548,2.594,2.594,0,0,1,.347-.392A.469.469,0,0,0,266.923,251.271Z" transform="translate(-265.698 -251.12)" fill="#fff" stroke="#fff" stroke-width="0.5"/>
      </g>
    </g>
    <g id="Group_1106" data-name="Group 1106" transform="translate(19.835 28.957)">
      <g id="Group_1105" data-name="Group 1105">
        <path id="Path_220" data-name="Path 220" d="M314.668,463.314h0l-.62,0a.469.469,0,0,0,0,.938h0l.62,0a.469.469,0,0,0,0-.939Z" transform="translate(-313.578 -463.314)" fill="#fff" stroke="#fff" stroke-width="0.5"/>
      </g>
    </g>
    <g id="Group_1108" data-name="Group 1108" transform="translate(14.872 28.98)">
      <g id="Group_1107" data-name="Group 1107">
        <path id="Path_221" data-name="Path 221" d="M235.336,463.675h0l-.62,0a.469.469,0,0,0,0,.939h0l.62,0a.469.469,0,0,0,0-.938Z" transform="translate(-234.246 -463.675)" fill="#fff" stroke="#fff" stroke-width="0.5"/>
      </g>
    </g>
    <g id="Group_1110" data-name="Group 1110" transform="translate(17.204 20.12)">
      <g id="Group_1109" data-name="Group 1109">
        <path id="Path_222" data-name="Path 222" d="M272.731,322.372a2.593,2.593,0,0,1-.412-.323.469.469,0,1,0-.651.676,3.529,3.529,0,0,0,.562.44.469.469,0,1,0,.5-.794Z" transform="translate(-271.523 -321.919)" fill="#fff" stroke="#fff" stroke-width="0.5"/>
      </g>
    </g>
    <g id="Group_1112" data-name="Group 1112" transform="translate(16.27 17.898)">
      <g id="Group_1111" data-name="Group 1111">
        <path id="Path_223" data-name="Path 223" d="M257.585,287a3.321,3.321,0,0,0-.048.561v.03a.506.506,0,0,1-.465.538h-.006a.5.5,0,0,1-.47-.526v-.042a4.523,4.523,0,0,1,.065-.765.489.489,0,0,1,.461-.431.416.416,0,0,1,.09.01A.533.533,0,0,1,257.585,287Z" transform="translate(-256.597 -288.125)" fill="#fff" stroke="#fff" stroke-width="0.5"/>
      </g>
    </g>
    <g id="Group_1114" data-name="Group 1114" transform="translate(21.945 20.968)">
      <g id="Group_1113" data-name="Group 1113">
        <path id="Path_224" data-name="Path 224" d="M348.4,335.489h-.62a.469.469,0,1,0,0,.938h.62a.469.469,0,1,0,0-.938Z" transform="translate(-347.309 -335.489)" fill="#fff" stroke="#fff" stroke-width="0.5"/>
      </g>
    </g>
    <g id="Group_1116" data-name="Group 1116" transform="translate(29.3 21.478)">
      <g id="Group_1115" data-name="Group 1115">
        <path id="Path_225" data-name="Path 225" d="M466.163,344.09a4.471,4.471,0,0,0-.575-.385.469.469,0,1,0-.461.818,3.542,3.542,0,0,1,.454.3.469.469,0,1,0,.582-.737Z" transform="translate(-464.888 -343.645)" fill="#fff" stroke="#fff" stroke-width="0.5"/>
      </g>
    </g>
    <g id="Group_1118" data-name="Group 1118" transform="translate(27.279 28.888)">
      <g id="Group_1117" data-name="Group 1117">
        <path id="Path_226" data-name="Path 226" d="M434.128,462.617a.47.47,0,0,0-.53-.4,3.537,3.537,0,0,1-.468.033h-.088a.469.469,0,0,0,0,.938h.09a4.488,4.488,0,0,0,.593-.042A.469.469,0,0,0,434.128,462.617Z" transform="translate(-432.575 -462.211)" fill="#fff" stroke="#fff" stroke-width="0.5"/>
      </g>
    </g>
    <g id="Group_1120" data-name="Group 1120" transform="translate(29.615 27.828)">
      <g id="Group_1119" data-name="Group 1119">
        <path id="Path_227" data-name="Path 227" d="M471.208,445.4a.47.47,0,0,0-.664-.016,3.548,3.548,0,0,1-.424.345.469.469,0,0,0,.535.771,4.492,4.492,0,0,0,.537-.437A.469.469,0,0,0,471.208,445.4Z" transform="translate(-469.918 -445.25)" fill="#fff" stroke="#fff" stroke-width="0.5"/>
      </g>
    </g>
    <g id="Group_1122" data-name="Group 1122" transform="translate(31.101 25.687)">
      <g id="Group_1121" data-name="Group 1121">
        <path id="Path_228" data-name="Path 228" d="M494.386,411a.47.47,0,0,0-.548.374,3.512,3.512,0,0,1-.143.527.47.47,0,0,0,.885.315,4.446,4.446,0,0,0,.181-.668A.469.469,0,0,0,494.386,411Z" transform="translate(-493.667 -410.987)" fill="#fff" stroke="#fff" stroke-width="0.5"/>
      </g>
    </g>
    <g id="Group_1124" data-name="Group 1124" transform="translate(30.96 23.267)">
      <g id="Group_1123" data-name="Group 1123">
        <path id="Path_229" data-name="Path 229" d="M492.551,373.185a4.429,4.429,0,0,0-.243-.649.47.47,0,0,0-.851.4,3.482,3.482,0,0,1,.191.511.47.47,0,0,0,.9-.259Z" transform="translate(-491.412 -372.265)" fill="#fff" stroke="#fff" stroke-width="0.5"/>
      </g>
    </g>
    <g id="Group_1126" data-name="Group 1126" transform="translate(24.426 20.968)">
      <g id="Group_1125" data-name="Group 1125">
        <path id="Path_230" data-name="Path 230" d="M388.065,335.489h-.62a.469.469,0,1,0,0,.938h.62a.469.469,0,1,0,0-.938Z" transform="translate(-386.975 -335.489)" fill="#fff" stroke="#fff" stroke-width="0.5"/>
      </g>
    </g>
    <g id="Group_1128" data-name="Group 1128" transform="translate(22.316 28.946)">
      <g id="Group_1127" data-name="Group 1127">
        <path id="Path_231" data-name="Path 231" d="M354.333,463.134h0l-.62,0a.469.469,0,0,0,0,.939h0l.62,0a.469.469,0,0,0,0-.938Z" transform="translate(-353.243 -463.134)" fill="#fff" stroke="#fff" stroke-width="0.5"/>
      </g>
    </g>
    <g id="Group_1130" data-name="Group 1130" transform="translate(26.908 20.968)">
      <g id="Group_1129" data-name="Group 1129">
        <path id="Path_232" data-name="Path 232" d="M427.751,335.494c-.066,0-.134,0-.2,0h-.441a.469.469,0,1,0,0,.938h.441q.08,0,.158,0h.021a.469.469,0,0,0,.02-.938Z" transform="translate(-426.64 -335.49)" fill="#fff" stroke="#fff" stroke-width="0.5"/>
      </g>
    </g>
    <g id="Group_1132" data-name="Group 1132" transform="translate(24.798 28.935)">
      <g id="Group_1131" data-name="Group 1131">
        <path id="Path_233" data-name="Path 233" d="M394,462.955h0l-.62,0a.469.469,0,0,0,0,.939h0l.62,0a.469.469,0,0,0,0-.939Z" transform="translate(-392.908 -462.955)" fill="#fff" stroke="#fff" stroke-width="0.5"/>
      </g>
    </g>
  </g>
</svg>
