<svg xmlns="http://www.w3.org/2000/svg" width="34" height="34" viewBox="0 0 34 34">
  <g id="emoji-happy1" transform="translate(-429 -381)">
    <path id="Vector" d="M11.2,32h9.6c8,0,11.2-3.2,11.2-11.2V11.2C32,3.2,28.8,0,20.8,0H11.2C3.2,0,0,3.2,0,11.2v9.6C0,28.8,3.2,32,11.2,32Z" transform="translate(430 382)" fill="none" stroke="#fff" stroke-linecap="round" stroke-linejoin="round" stroke-width="2"/>
    <path id="Vector-2" data-name="Vector" d="M4.8,2.4A2.4,2.4,0,1,1,2.4,0,2.4,2.4,0,0,1,4.8,2.4Z" transform="translate(449.2 389.6)" fill="none" stroke="#fff" stroke-linecap="round" stroke-linejoin="round" stroke-width="2"/>
    <path id="Vector-3" data-name="Vector" d="M4.8,2.4A2.4,2.4,0,1,1,2.4,0,2.4,2.4,0,0,1,4.8,2.4Z" transform="translate(438 389.6)" fill="none" stroke="#fff" stroke-linecap="round" stroke-linejoin="round" stroke-width="2"/>
    <path id="Vector-4" data-name="Vector" d="M1.44,0H12.96A1.434,1.434,0,0,1,14.4,1.44,7.2,7.2,0,1,1,0,1.44,1.434,1.434,0,0,1,1.44,0Z" transform="translate(438.8 400.08)" fill="none" stroke="#fff" stroke-linecap="round" stroke-linejoin="round" stroke-width="2"/>
  </g>
</svg>
