<svg xmlns="http://www.w3.org/2000/svg" width="14" height="24" viewBox="0 0 14 24">
  <path id="facebook-b" d="M9.148,24H5.2A1.182,1.182,0,0,1,4,22.835V14.166H1.7A1.182,1.182,0,0,1,.5,13V9.288A1.182,1.182,0,0,1,1.7,8.123H4V6.263A6.237,6.237,0,0,1,5.722,1.726,6.293,6.293,0,0,1,10.293,0l3.013,0A1.182,1.182,0,0,1,14.5,1.169V4.617a1.182,1.182,0,0,1-1.2,1.164H11.276c-.619,0-.776.121-.81.158-.056.061-.122.235-.122.714v1.47h2.807a1.243,1.243,0,0,1,.592.146,1.164,1.164,0,0,1,.616,1.018l0,3.715a1.182,1.182,0,0,1-1.2,1.164H10.344v8.669A1.182,1.182,0,0,1,9.148,24Zm-3.7-1.407H8.9V13.537a.789.789,0,0,1,.8-.777h3.215V9.53H9.7a.789.789,0,0,1-.8-.777v-2.1a2.35,2.35,0,0,1,.484-1.645,2.494,2.494,0,0,1,1.893-.634h1.779V1.411l-2.762,0A4.5,4.5,0,0,0,5.447,6.263v2.49a.789.789,0,0,1-.8.777h-2.7v3.229h2.7a.789.789,0,0,1,.8.777ZM13.3,1.411h0Zm0,0" transform="translate(-0.5 0)" fill="#181818"/>
</svg>
