<svg xmlns="http://www.w3.org/2000/svg" width="22.2" height="19.204" viewBox="0 0 22.2 19.204">
  <g id="food" transform="translate(0.1 -30.896)">
    <path id="Path_153" data-name="Path 153" d="M21.732,31.12a.654.654,0,0,0-.581-.087,6.214,6.214,0,0,0-4.226,4.877,8.606,8.606,0,0,0-10.48-1.08v-3.2a.645.645,0,0,0-1.289,0v2.533a.64.64,0,0,1-.645.633H3.867V31.633a.645.645,0,0,0-1.289,0V34.8H1.934a.64.64,0,0,1-.645-.633V31.633A.639.639,0,0,0,.645,31,.639.639,0,0,0,0,31.633v3.8a3.161,3.161,0,0,0,1.289,2.533V48.1a1.934,1.934,0,0,0,3.867,0v-.4a8.545,8.545,0,0,0,12.977-1.559V48.1A1.934,1.934,0,0,0,22,48.1V31.633A.63.63,0,0,0,21.732,31.12ZM3.223,48.733a.64.64,0,0,1-.645-.633V37.628a.631.631,0,0,0-.322-.548,1.914,1.914,0,0,1-.882-1.094,1.958,1.958,0,0,0,.559.081H4.512a1.959,1.959,0,0,0,.559-.081,1.914,1.914,0,0,1-.882,1.094.631.631,0,0,0-.322.548V48.1A.64.64,0,0,1,3.223,48.733Zm7.777,0a7.163,7.163,0,0,1-5.844-2.961V37.967a3.19,3.19,0,0,0,1.069-1.388A7.3,7.3,0,0,1,11,34.8a7.163,7.163,0,0,1,5.844,2.961v5.273a.639.639,0,0,0,.645.633h.376A7.182,7.182,0,0,1,11,48.733Zm9.711-.633a.645.645,0,0,1-1.289,0V43.033a.639.639,0,0,0-.645-.633h-.645V36.906A4.9,4.9,0,0,1,20.711,32.6Z" transform="translate(0 0)" fill="#181818" stroke="#181818" stroke-width="0.2"/>
    <path id="Path_154" data-name="Path 154" d="M154.555,181a4.435,4.435,0,1,0,4.555,4.433A4.5,4.5,0,0,0,154.555,181Zm0,7.6a3.168,3.168,0,1,1,3.266-3.167A3.221,3.221,0,0,1,154.555,188.6Z" transform="translate(-143.555 -143.667)" fill="#181818" stroke="#181818" stroke-width="0.2"/>
  </g>
</svg>
