<svg id="gallery" xmlns="http://www.w3.org/2000/svg" width="16" height="16" viewBox="0 0 16 16">
  <path id="Vector" d="M4.667,13.333h4c3.333,0,4.667-1.333,4.667-4.667v-4C13.333,1.333,12,0,8.667,0h-4C1.333,0,0,1.333,0,4.667v4C0,12,1.333,13.333,4.667,13.333Z" transform="translate(1.333 1.333)" fill="none" stroke="#58616d" stroke-linecap="round" stroke-linejoin="round" stroke-width="1.5"/>
  <path id="Vector-2" data-name="Vector" d="M2.667,1.333A1.333,1.333,0,1,1,1.333,0,1.333,1.333,0,0,1,2.667,1.333Z" transform="translate(4.667 4)" fill="none" stroke="#58616d" stroke-linecap="round" stroke-linejoin="round" stroke-width="1.5"/>
  <path id="Vector-3" data-name="Vector" d="M0,4.635,3.287,2.428a1.5,1.5,0,0,1,1.76.093l.22.193a1.486,1.486,0,0,0,1.88,0L9.92.335a1.486,1.486,0,0,1,1.88,0l1.087.933" transform="translate(1.78 7.998)" fill="none" stroke="#58616d" stroke-linecap="round" stroke-linejoin="round" stroke-width="1.5"/>
  <path id="Vector-4" data-name="Vector" d="M0,0H16V16H0Z" fill="none" opacity="0"/>
</svg>
