<svg xmlns="http://www.w3.org/2000/svg" width="24" height="16" viewBox="0 0 24 16">
  <g id="georgia" transform="translate(0 -88.276)">
    <path id="Path_5" data-name="Path 5" d="M23.586,104.276H.414A.418.418,0,0,1,0,103.855V88.7a.418.418,0,0,1,.414-.421H23.586A.418.418,0,0,1,24,88.7v15.158A.418.418,0,0,1,23.586,104.276Z" fill="#f5f5f5"/>
    <g id="Group_2" data-name="Group 2" transform="translate(0 88.276)">
      <path id="Path_6" data-name="Path 6" d="M24,95.014H13.241V88.277H10.759v6.737H0V97.54H10.759v6.737h2.483V97.54H24Z" transform="translate(0 -88.277)" fill="#ff4b55"/>
      <path id="Path_7" data-name="Path 7" d="M82.76,124.7l-1.214.126c.041-.409.083-.818.124-1.235a4.329,4.329,0,0,1-1.131,0c.041.417.083.826.124,1.235L79.45,124.7a4.559,4.559,0,0,1,0,1.151l1.213-.126c-.041.409-.083.818-.124,1.235a4.329,4.329,0,0,1,1.131,0c-.041-.417-.083-.826-.124-1.235l1.214.126A4.563,4.563,0,0,1,82.76,124.7Z" transform="translate(-75.726 -121.904)" fill="#ff4b55"/>
      <path id="Path_8" data-name="Path 8" d="M365.243,124.7l-1.214.126c.041-.409.083-.818.124-1.235a4.329,4.329,0,0,1-1.131,0c.041.417.083.826.124,1.235l-1.214-.126a4.559,4.559,0,0,1,0,1.151l1.214-.126c-.041.409-.083.818-.124,1.235a4.329,4.329,0,0,1,1.131,0c-.041-.417-.083-.826-.124-1.235l1.214.126A4.565,4.565,0,0,1,365.243,124.7Z" transform="translate(-344.967 -121.904)" fill="#ff4b55"/>
      <path id="Path_9" data-name="Path 9" d="M82.76,318.9l-1.214.126c.041-.409.083-.818.124-1.235a4.329,4.329,0,0,1-1.131,0c.041.417.083.826.124,1.235L79.45,318.9a4.559,4.559,0,0,1,0,1.151l1.213-.126c-.041.409-.083.818-.124,1.235a4.331,4.331,0,0,1,1.131,0c-.041-.417-.083-.826-.124-1.235l1.214.126A4.563,4.563,0,0,1,82.76,318.9Z" transform="translate(-75.726 -306.847)" fill="#ff4b55"/>
      <path id="Path_10" data-name="Path 10" d="M365.243,318.9l-1.214.126c.041-.409.083-.818.124-1.235a4.329,4.329,0,0,1-1.131,0c.041.417.083.826.124,1.235l-1.214-.126a4.559,4.559,0,0,1,0,1.151l1.214-.126c-.041.409-.083.818-.124,1.235a4.331,4.331,0,0,1,1.131,0c-.041-.417-.083-.826-.124-1.235l1.214.126A4.565,4.565,0,0,1,365.243,318.9Z" transform="translate(-344.967 -306.847)" fill="#ff4b55"/>
    </g>
  </g>
</svg>
