<svg xmlns="http://www.w3.org/2000/svg" width="523.906" height="183.23" viewBox="0 0 523.906 183.23">
  <g id="Group_1279" data-name="Group 1279" transform="translate(-1976.048 -965.266)" opacity="0.15">
    <path id="Path_525" data-name="Path 525" d="M2702.879,1151.455v13.667h-6.633v-22.228H2662.4v90.169h51.783v-87.883Z" transform="translate(-326.769 -84.568)" fill="#b3d6ff"/>
    <path id="Path_526" data-name="Path 526" d="M2453.5,1189.752V1160.68h-24.608v80.851h46.477v-51.779Z" transform="translate(-215.598 -93.036)" fill="#b3d6ff"/>
    <path id="Path_527" data-name="Path 527" d="M2126.13,1127.836h2.271V1125h4.111v-26.3c10.8,0,12.85,4.131,12.85,4.131h8.4v109.188H2122.9v-81.357h3.232Z" transform="translate(-69.915 -63.53)" fill="#b3d6ff"/>
    <path id="Path_528" data-name="Path 528" d="M2221.808,1145.257h.752a1.113,1.113,0,0,0,1.113-1.113v-4.076a1.113,1.113,0,0,0-1.113-1.113h-.752a1.113,1.113,0,0,0-1.113,1.113v.549h-4.077v-1.344a2.082,2.082,0,0,0-2.082-2.082h-.81v-14.456H2210.6v-13.068h-2.544v-6.448h2.233l-4.395-5.271v-5.18h2.573v-1H2205.9v-3.007h-1v3.007h-2.573v1h2.573v5.18l-4.395,5.271h2.234v6.448H2200.2v13.068h-3.122v14.456h-.81a2.082,2.082,0,0,0-2.082,2.082v1.344h-4.077v-.549a1.113,1.113,0,0,0-1.113-1.113h-.751a1.113,1.113,0,0,0-1.113,1.113v4.076a1.113,1.113,0,0,0,1.113,1.113h.751a1.113,1.113,0,0,0,1.113-1.113v-.55h4.077v3.31h-7.055v60.386h36.545v-60.386h-7.055v-3.31h4.077v.55A1.113,1.113,0,0,0,2221.808,1145.257Z" transform="translate(-100.494 -58.796)" fill="#b3d6ff"/>
    <path id="Path_529" data-name="Path 529" d="M2682.835,1142.239v-.983h-1.353v-3.415h-1v-1.388h-1.672v-4.078H2677.5V1128.3h-.756v-1.339h-1.739v-7.265h-1.38v-7.559h-1.379v14.824h-1.341v1.339h-.756v4.078h-1.314v4.078h-1.671v1.388h-1v3.415h-1.353v.983h-1.234v76.181h20.487v-76.181Z" transform="translate(-327.331 -69.924)" fill="#0a6fe5"/>
    <path id="Path_530" data-name="Path 530" d="M2584.814,1122.173V1099.9c0-.432-.653-.784-1.455-.784s-1.455.353-1.455.784v18.02h-13.093v4.192h-10.547v-9.617H2545.9v9.682h-7.638v90.045h51.644v-90.045Z" transform="translate(-267.667 -63.723)" fill="#b3d6ff"/>
    <path id="Path_531" data-name="Path 531" d="M2304.331,1134.853l7.514-8.06h3.3l2.476-4.483h.913l.648-8.883h.168v-12.05a.4.4,0,1,1,.771,0v12.05h.169l.649,8.883h.913l2.477,4.483h2.063l6.294,8.06h4.769l1.541,2.92h11.48v75.289h-48.168v-75.289h2.023Z" transform="translate(-155.331 -64.566)" fill="#b3d6ff"/>
    <path id="Path_532" data-name="Path 532" d="M2855.279,1152.253h-7.69v-2.831h-12.97v2.831h-2.3v5.506H2827.9v-6.851h-3.588v-6.851h-4.471v-5.726H2817.8v-5.726h-14.534v5.726h-2.042v5.726h-4.471v6.851h-3.587v6.851h-1.987v70.406h74.107v-70.406h-10.009Z" transform="translate(-388.079 -79.669)" fill="#b3d6ff"/>
    <path id="Path_533" data-name="Path 533" d="M2853.631,1159.723v5.694h-3.506v-8.355l-10.422,2.661v5.694h-9.122v-6.611h-2.218v-7.347h-6.653v3.912h-2.634v3.434H2817v78.335h47.056v-80.079Z" transform="translate(-400.371 -88.646)" fill="#0a6fe5"/>
    <path id="Path_534" data-name="Path 534" d="M2164.221,1235.954v-2.489h-2.484v-14.3l-13.557,11.814v2.489H2145.7v2.489h-.926v33.42h20.378v-33.42Z" transform="translate(-80.327 -120.879)" fill="#0a6fe5"/>
    <path id="Path_535" data-name="Path 535" d="M2289.263,1171.11v-1.8h-4.06v-1.8h-13.279v1.8h-4.06v1.8h-5.956v73.672h33.31V1171.11Z" transform="translate(-136.096 -96.286)" fill="#0a6fe5"/>
    <path id="Path_536" data-name="Path 536" d="M2223.24,1194.627v-4.968h-2.779a3.284,3.284,0,0,0-3.284-3.284h-8.252a3.284,3.284,0,0,0-3.284,3.284h-2.779v4.968h-1.347v59.137h23.072v-59.137Z" transform="translate(-107.344 -105.269)" fill="#0a6fe5"/>
    <rect id="Rectangle_4283" data-name="Rectangle 4283" width="14.273" height="35.24" transform="translate(2171.062 1113.256)" fill="#0a6fe5"/>
    <path id="Path_537" data-name="Path 537" d="M2410.858,1110.288v-2.481h-23.537v2.481h-3.633v106.07h34.947v-106.07Z" transform="translate(-194.075 -67.863)" fill="#0a6fe5"/>
    <path id="Path_538" data-name="Path 538" d="M2060.206,1125.59v-31.848h1.388v-4.9h-7.513v-6.124h-4.165v-10.658a1.969,1.969,0,0,1,.153-.736c.275-.683.827-2.555.827-6.6,0-1.441,2.413-9.474.142-19.252a2.144,2.144,0,0,0-.5-.938c-.627-.695-1.078-1.736.726-1.736,2.144,0,4.716-1.96,4.716-7.594,0-.281,1.206-1.06,1.425-1.258a8.35,8.35,0,0,0,1.535-1.8,9.931,9.931,0,0,0,1.163-3.046,18.381,18.381,0,0,0,.344-2.258,9.629,9.629,0,0,0,.13-2.564c-.19-.969-1.086-1.2-1.814-1.682q-.536-.354-1.08-.7a2.058,2.058,0,0,0-2.7.431,10.831,10.831,0,0,1-1.623,1.745,4.776,4.776,0,0,1-1.908.1,2.078,2.078,0,0,1-1.6-.962,18.049,18.049,0,0,1-1.769-3.628s-.245-4.042-5.573-8.574c-1.654-3.083.8-4.165-.245-9.125a35.428,35.428,0,0,0,4.655-.735l-4.593-.98,3.98-2.572-5.328.673,2.878-4.716-4.348,3.675s-1.531.551-1.531-.8-.8-6.982-.8-6.982-.735,6.676-.98,7.1-1.1.919-2.572-.061-3.859-2.633-3.859-2.633,3.369,4.042,3.246,4.716-4.655-.429-4.655-.429,4.1,1.47,3.858,1.9-2.695,1.041-2.695,1.041,2.756.551,2.756,1.041.429,4.042-1.347,4.042-.857-3.369-1.9-4.961-1.388-5.451-2.226-7.717a59.671,59.671,0,0,1-2.368-12.31,12.568,12.568,0,0,0-.49-3.919h2.858V975.6h-.816v-1.674h-.613v-.98h-2v-1.674s3.389-1.96-.531-6c0,0-.123,2.327-1.593,2.327-.8.8-1.592,3.369,0,4.777v.8h-2.45v.755h-.612V975.6h-.817v1.674h2.531s1.654,9.125,1.838,10.534.245,8.084,1.348,11.453a17.37,17.37,0,0,1,.269,3.724,1.882,1.882,0,0,1-.533,1.137,10.484,10.484,0,0,0-2.247,4.937c0,1.374,2.072,5.117,3.56,6.71a1.912,1.912,0,0,1,.511,1.308c.016,1.91.014,6.049,1.871,7.906.411.412-.014,1.648-.127,2.1a13.559,13.559,0,0,1-1.167,3.174c-1.176,2.139-1.42,6.1.437,7.955.708.708-.337,2.317-.661,2.972a8.986,8.986,0,0,0-.551,4.879,12.026,12.026,0,0,0,1.735,5.046,2.154,2.154,0,0,1,.462,1.276v30.337h-4.165v6.124h-7.512v4.9h1.388v31.848h-3.1V1148.5h50.053V1125.59Z" transform="translate(-17.715 0)" fill="#0a6fe5"/>
    <path id="Path_539" data-name="Path 539" d="M2521.568,1198.29v-86.155h-39.353v106.284h48.853V1198.29Z" transform="translate(-240.983 -69.924)" fill="#0a6fe5"/>
    <path id="Path_540" data-name="Path 540" d="M2605.84,1134.266v-2.1h-.821v1.053h-2.842v-1.053h-.821v1.053H2598.4v-1.053h-.821v1.053h-3.81v-1.053h-.821v1.053H2587.2v-1.053h-.821v1.053H2583.6v-1.053h-.821v1.053h-.884v65.326H2569.01v29.414h37.64v-93.687Z" transform="translate(-282.306 -79.457)" fill="#0a6fe5"/>
    <path id="Path_541" data-name="Path 541" d="M2737.94,1113.6v-8.221l-1.8-1.8v-4.471h.011l-1.984-2v-5.333a.308.308,0,1,0-.616,0v5.334l-1.985,2v4.471h-1.13l-13.873,10.019v94.981h23.224V1113.6Z" transform="translate(-352.556 -60.083)" fill="#0a6fe5"/>
    <path id="Path_542" data-name="Path 542" d="M2788.65,1232.371v-42.3h-3.705V1186.6h-9.768v3.479h-3.705v63.795h25.767v-21.5Z" transform="translate(-378.697 -105.374)" fill="#0a6fe5"/>
    <path id="Path_543" data-name="Path 543" d="M2897.848,1233.606v-34.423h15.283v60.679h-30.566v-26.256Z" transform="translate(-431.587 -111.366)" fill="#0a6fe5"/>
    <path id="Path_544" data-name="Path 544" d="M2950.113,1269.034v-11.966h-9.2v30.353h18.41v-18.387Z" transform="translate(-459.364 -138.925)" fill="#0a6fe5"/>
    <path id="Path_545" data-name="Path 545" d="M2319.687,1273.971h-14.381v6.38h-3.334v-3.19h-9.587v-.919H2287.8v.919h-2.5v4.055h-6.878v-3.623h-6.669v3.623h-7.086v-7.245h-7.086v7.245h-6.669v1.081h-9.275v-2.271h-6.773v-3.785h-16.049v3.677h-9.066V1276.4h-9.379v3.568h-7.4v-2.487h-10.63v-3.515h-7.711v8.327h-3.96v-2.379h-4.377v-2.271h-13.547v4.65h-2.5v-4.758h-3.126v-1.3h-8.962v1.3l-5,2.6h-4.585v-4.109h-5.419v5.623h-3.126v13.819h199.666Z" transform="translate(-68.545 -146.972)" fill="#4398fc"/>
    <path id="Path_546" data-name="Path 546" d="M2574.25,1263.585v-2.892h-7.029v2.892h-1.576l-2.909,4.1h-11v6.032h-22.9v15.425h22.9v-.121h27V1267.69l-2.909-4.1Z" transform="translate(-263.18 -140.651)" fill="#4398fc"/>
    <path id="Path_547" data-name="Path 547" d="M2794.716,1266.09l3.46,4.616h.075v2.695h8.3v-1.617h18.689v-1.078l2.908-3.414h1.575v-2.405h7.029v2.405h1.575l2.909,3.414h11.877l2.909-3.414h1.575v-2.405h7.029v2.405h1.575l2.908,3.414v3.276h9.8v17.161H2791.18v-20.437h.075Z" transform="translate(-388.079 -142.648)" fill="#4398fc"/>
    <path id="Path_548" data-name="Path 548" d="M2755.45,1265.4h-1.873v-1.312H2751.7v2.625h-1.094v-2.625h-1.873v1.312h-1.873v1.312h-6.511v24.049h21.608v-24.049h-6.51Z" transform="translate(-363.881 -142.268)" fill="#4398fc"/>
    <path id="Path_549" data-name="Path 549" d="M2674.191,1274.03v-7.324h-13.039v1.594h-8.542v-1.822H2649.8v-1.822h-.035l-4.76-1.849v-4.669a.314.314,0,0,0-.607,0v4.669l-4.759,1.849v1.822h-2.806v21.341h44.426V1274.03Z" transform="translate(-314.598 -139.324)" fill="#4398fc"/>
    <g id="Group_1278" data-name="Group 1278" transform="translate(1976.048 1138.263)">
      <rect id="Rectangle_4284" data-name="Rectangle 4284" width="523.906" height="9.041" transform="translate(0 0)" fill="#5a5b5e"/>
      <rect id="Rectangle_4285" data-name="Rectangle 4285" width="523.906" height="9.041" transform="translate(0 1.191)" fill="#0a6fe5"/>
    </g>
  </g>
</svg>
