<svg xmlns="http://www.w3.org/2000/svg" width="470.423" height="183.021" viewBox="0 0 470.423 183.021">
  <g id="Group_1356" data-name="Group 1356" transform="translate(-1129.289 -741.233)" opacity="0.15">
    <rect id="Rectangle_4294" data-name="Rectangle 4294" width="201.282" height="86.467" transform="translate(1129.605 837.786)" fill="#0a6fe5"/>
    <rect id="Rectangle_4295" data-name="Rectangle 4295" width="15.032" height="15.468" transform="translate(1512.93 823.818)" fill="#0a6fe5"/>
    <path id="Path_685" data-name="Path 685" d="M1393.481,877.275V838.5l-1.769-.721v-7.015l-13.388-5.461-8.471,6.553V838.4l-1.77,1.369v25.387C1376.714,868.393,1386.056,871.913,1393.481,877.275Z" fill="#0a6fe5"/>
    <path id="Path_686" data-name="Path 686" d="M1206.051,853.244V814.468l-2.27-.722v-7.015l-17.172-5.46-10.865,6.552v6.545l-2.27,1.369v25.386C1184.544,844.362,1196.527,847.882,1206.051,853.244Z" fill="#0a6fe5"/>
    <rect id="Rectangle_4296" data-name="Rectangle 4296" width="45.046" height="86.467" transform="translate(1505.438 837.786)" fill="#0a6fe5"/>
    <g id="Group_1321" data-name="Group 1321">
      <rect id="Rectangle_4297" data-name="Rectangle 4297" width="2.499" height="37.18" transform="translate(1208.026 782.972)" fill="#0a6fe5"/>
      <path id="Path_687" data-name="Path 687" d="M1255.7,837.56V823.039l-49.646-11.3L1174.638,825.3v13.548l-6.562,2.834v82.572h94.183v-85.2Z" fill="#4398fc"/>
      <path id="Path_688" data-name="Path 688" d="M1206.051,827.257v97h56.208v-85.2l-6.562-1.494Z" fill="#b3d6ff"/>
      <g id="Group_1320" data-name="Group 1320">
        <path id="Path_689" data-name="Path 689" d="M1256.684,853.474l-43.6-6.3v-9.4l43.6,7.174Z" fill="#0a6fe5"/>
        <path id="Path_690" data-name="Path 690" d="M1256.684,865.726l-43.6-5.038v-9.4l43.6,5.914Z" fill="#0a6fe5"/>
        <path id="Path_691" data-name="Path 691" d="M1256.684,877.978l-43.6-3.778v-9.4l43.6,4.655Z" fill="#0a6fe5"/>
        <path id="Path_692" data-name="Path 692" d="M1256.684,890.229l-43.6-2.519v-9.4l43.6,3.4Z" fill="#0a6fe5"/>
        <path id="Path_693" data-name="Path 693" d="M1256.684,902.481l-43.6-1.259v-9.4l43.6,2.136Z" fill="#0a6fe5"/>
        <path id="Path_694" data-name="Path 694" d="M1256.684,914.733h-43.6v-9.4l43.6.876Z" fill="#0a6fe5"/>
      </g>
    </g>
    <g id="Group_1324" data-name="Group 1324">
      <rect id="Rectangle_4298" data-name="Rectangle 4298" width="1.874" height="38.865" transform="translate(1487.938 741.233)" fill="#0a6fe5"/>
      <g id="Group_1323" data-name="Group 1323">
        <path id="Path_695" data-name="Path 695" d="M1505.438,919.344v-138.1l-25.622-15.355L1459.557,778.6V919.344Z" fill="#4398fc"/>
        <path id="Path_696" data-name="Path 696" d="M1505.438,919.344v-138.1l-25.622-15.355V919.344Z" fill="#b3d6ff"/>
        <g id="Group_1322" data-name="Group 1322">
          <path id="Path_697" data-name="Path 697" d="M1488.494,786.77l-6-2.8v-7.29l6,2.969Z" fill="#0a6fe5"/>
          <path id="Path_698" data-name="Path 698" d="M1496.219,790.372l-5.623-2.622v-7.057l5.623,2.784Z" fill="#0a6fe5"/>
          <path id="Path_699" data-name="Path 699" d="M1503.476,793.757l-5.284-2.464v-6.838l5.284,2.616Z" fill="#0a6fe5"/>
          <path id="Path_700" data-name="Path 700" d="M1488.494,798.307l-6-2.516V788.5l6,2.689Z" fill="#0a6fe5"/>
          <path id="Path_701" data-name="Path 701" d="M1496.219,801.549l-5.623-2.36v-7.057l5.623,2.522Z" fill="#0a6fe5"/>
          <path id="Path_702" data-name="Path 702" d="M1503.476,804.595l-5.284-2.218v-6.838l5.284,2.37Z" fill="#0a6fe5"/>
          <path id="Path_703" data-name="Path 703" d="M1488.494,809.843l-6-2.237v-7.29l6,2.409Z" fill="#0a6fe5"/>
          <path id="Path_704" data-name="Path 704" d="M1496.219,812.725l-5.623-2.1V803.57l5.623,2.26Z" fill="#0a6fe5"/>
          <path id="Path_705" data-name="Path 705" d="M1503.476,815.432l-5.284-1.971v-6.838l5.284,2.123Z" fill="#0a6fe5"/>
          <path id="Path_706" data-name="Path 706" d="M1488.494,821.38l-6-1.957v-7.29l6,2.13Z" fill="#0a6fe5"/>
          <path id="Path_707" data-name="Path 707" d="M1496.219,823.9l-5.623-1.836v-7.057l5.623,2Z" fill="#0a6fe5"/>
          <path id="Path_708" data-name="Path 708" d="M1503.476,826.27l-5.284-1.725v-6.838l5.284,1.877Z" fill="#0a6fe5"/>
          <path id="Path_709" data-name="Path 709" d="M1488.494,832.916l-6-1.678v-7.29l6,1.85Z" fill="#0a6fe5"/>
          <path id="Path_710" data-name="Path 710" d="M1496.219,835.078,1490.6,833.5v-7.057l5.623,1.735Z" fill="#0a6fe5"/>
          <path id="Path_711" data-name="Path 711" d="M1503.476,837.108l-5.284-1.479v-6.838l5.284,1.63Z" fill="#0a6fe5"/>
          <path id="Path_712" data-name="Path 712" d="M1488.494,844.453l-6-1.4v-7.29l6,1.571Z" fill="#0a6fe5"/>
          <path id="Path_713" data-name="Path 713" d="M1496.219,846.254l-5.623-1.311v-7.057l5.623,1.473Z" fill="#0a6fe5"/>
          <path id="Path_714" data-name="Path 714" d="M1503.476,847.946l-5.284-1.232v-6.838l5.284,1.384Z" fill="#0a6fe5"/>
          <path id="Path_715" data-name="Path 715" d="M1488.494,855.989l-6-1.119v-7.29l6,1.291Z" fill="#0a6fe5"/>
          <path id="Path_716" data-name="Path 716" d="M1496.219,857.43l-5.623-1.049v-7.057l5.623,1.211Z" fill="#0a6fe5"/>
          <path id="Path_717" data-name="Path 717" d="M1503.476,858.784l-5.284-.986V850.96l5.284,1.138Z" fill="#0a6fe5"/>
          <path id="Path_718" data-name="Path 718" d="M1488.494,867.526l-6-.839V859.4l6,1.011Z" fill="#0a6fe5"/>
          <path id="Path_719" data-name="Path 719" d="M1496.219,868.606l-5.623-.787v-7.057l5.623.948Z" fill="#0a6fe5"/>
          <path id="Path_720" data-name="Path 720" d="M1503.476,869.622l-5.284-.739v-6.838l5.284.891Z" fill="#0a6fe5"/>
          <path id="Path_721" data-name="Path 721" d="M1488.494,879.062l-6-.559v-7.29l6,.732Z" fill="#0a6fe5"/>
          <path id="Path_722" data-name="Path 722" d="M1496.219,879.783l-5.623-.524V872.2l5.623.686Z" fill="#0a6fe5"/>
          <path id="Path_723" data-name="Path 723" d="M1503.476,880.46l-5.284-.493v-6.838l5.284.645Z" fill="#0a6fe5"/>
          <path id="Path_724" data-name="Path 724" d="M1488.494,890.6l-6-.28v-7.29l6,.452Z" fill="#0a6fe5"/>
          <path id="Path_725" data-name="Path 725" d="M1496.219,890.959l-5.623-.262V883.64l5.623.424Z" fill="#0a6fe5"/>
          <path id="Path_726" data-name="Path 726" d="M1503.476,891.3l-5.284-.247v-6.838l5.284.4Z" fill="#0a6fe5"/>
          <path id="Path_727" data-name="Path 727" d="M1488.494,902.135h-6v-7.29l6,.172Z" fill="#0a6fe5"/>
          <path id="Path_728" data-name="Path 728" d="M1496.219,902.135H1490.6v-7.057l5.623.162Z" fill="#0a6fe5"/>
          <path id="Path_729" data-name="Path 729" d="M1503.476,902.135h-5.284V895.3l5.284.152Z" fill="#0a6fe5"/>
        </g>
      </g>
    </g>
    <g id="Group_1332" data-name="Group 1332">
      <rect id="Rectangle_4299" data-name="Rectangle 4299" width="1.874" height="21.407" transform="translate(1544.795 782.972)" fill="#0a6fe5"/>
      <g id="Group_1331" data-name="Group 1331">
        <path id="Path_730" data-name="Path 730" d="M1599.712,924.254V816.514l-36.571-27.175-22.229,14.224V924.254Z" fill="#4398fc"/>
        <path id="Path_731" data-name="Path 731" d="M1599.712,924.254V809.885l-36.571-20.546V924.254Z" fill="#b3d6ff"/>
        <g id="Group_1330" data-name="Group 1330">
          <g id="Group_1325" data-name="Group 1325">
            <path id="Path_732" data-name="Path 732" d="M1572.369,818.734l-7.279-3.26V796.83l7.279,3.868Z" fill="#0a6fe5"/>
            <path id="Path_733" data-name="Path 733" d="M1581.675,822.9l-6.656-2.98V802.106l6.656,3.536Z" fill="#0a6fe5"/>
            <path id="Path_734" data-name="Path 734" d="M1590.211,826.724l-6.109-2.736V806.932l6.109,3.246Z" fill="#0a6fe5"/>
            <path id="Path_735" data-name="Path 735" d="M1598.071,830.243l-5.627-2.52V811.364l5.627,2.99Z" fill="#0a6fe5"/>
          </g>
          <g id="Group_1326" data-name="Group 1326">
            <path id="Path_736" data-name="Path 736" d="M1572.369,842.9l-7.279-2.445V821.816l7.279,3.053Z" fill="#0a6fe5"/>
            <path id="Path_737" data-name="Path 737" d="M1581.675,846.03l-6.656-2.235V825.98l6.656,2.791Z" fill="#0a6fe5"/>
            <path id="Path_738" data-name="Path 738" d="M1590.211,848.9l-6.109-2.052V829.789l6.109,2.562Z" fill="#0a6fe5"/>
            <path id="Path_739" data-name="Path 739" d="M1598.071,851.536l-5.627-1.89V833.287l5.627,2.36Z" fill="#0a6fe5"/>
          </g>
          <g id="Group_1327" data-name="Group 1327">
            <path id="Path_740" data-name="Path 740" d="M1572.369,867.075l-7.279-1.63V846.8l7.279,2.238Z" fill="#0a6fe5"/>
            <path id="Path_741" data-name="Path 741" d="M1581.675,869.159l-6.656-1.49V849.854l6.656,2.046Z" fill="#0a6fe5"/>
            <path id="Path_742" data-name="Path 742" d="M1590.211,871.07,1584.1,869.7V852.646l6.109,1.878Z" fill="#0a6fe5"/>
            <path id="Path_743" data-name="Path 743" d="M1598.071,872.83l-5.627-1.26V855.211l5.627,1.73Z" fill="#0a6fe5"/>
          </g>
          <g id="Group_1328" data-name="Group 1328">
            <path id="Path_744" data-name="Path 744" d="M1572.369,891.246l-7.279-.815V871.786l7.279,1.423Z" fill="#0a6fe5"/>
            <path id="Path_745" data-name="Path 745" d="M1581.675,892.288l-6.656-.745V873.728l6.656,1.3Z" fill="#0a6fe5"/>
            <path id="Path_746" data-name="Path 746" d="M1590.211,893.243l-6.109-.684V875.5l6.109,1.194Z" fill="#0a6fe5"/>
            <path id="Path_747" data-name="Path 747" d="M1598.071,894.123l-5.627-.63V877.134l5.627,1.1Z" fill="#0a6fe5"/>
          </g>
          <g id="Group_1329" data-name="Group 1329">
            <path id="Path_748" data-name="Path 748" d="M1572.369,915.416h-7.279V896.772l7.279.608Z" fill="#0a6fe5"/>
            <path id="Path_749" data-name="Path 749" d="M1581.675,915.416h-6.656V897.6l6.656.556Z" fill="#0a6fe5"/>
            <path id="Path_750" data-name="Path 750" d="M1590.211,915.416H1584.1V898.36l6.109.51Z" fill="#0a6fe5"/>
            <path id="Path_751" data-name="Path 751" d="M1598.071,915.416h-5.627V899.057l5.627.47Z" fill="#0a6fe5"/>
          </g>
        </g>
      </g>
    </g>
    <g id="Group_1340" data-name="Group 1340">
      <rect id="Rectangle_4300" data-name="Rectangle 4300" width="2.017" height="15.773" transform="translate(1323.409 817.197) rotate(180)" fill="#0a6fe5"/>
      <g id="Group_1339" data-name="Group 1339">
        <path id="Path_752" data-name="Path 752" d="M1264.3,905.525V826.138l39.362-20.024,23.926,10.481v88.93Z" fill="#4398fc"/>
        <path id="Path_753" data-name="Path 753" d="M1264.3,905.525V821.254l39.362-15.139v99.41Z" fill="#b3d6ff"/>
        <g id="Group_1338" data-name="Group 1338">
          <g id="Group_1333" data-name="Group 1333">
            <path id="Path_754" data-name="Path 754" d="M1293.73,827.775l7.835-2.4V811.635l-7.835,2.85Z" fill="#0a6fe5"/>
            <path id="Path_755" data-name="Path 755" d="M1283.715,830.845l7.164-2.2V815.522l-7.164,2.606Z" fill="#0a6fe5"/>
            <path id="Path_756" data-name="Path 756" d="M1274.526,833.662l6.575-2.016V819.078l-6.575,2.392Z" fill="#0a6fe5"/>
            <path id="Path_757" data-name="Path 757" d="M1266.068,836.255l6.056-1.857V822.344l-6.056,2.2Z" fill="#0a6fe5"/>
          </g>
          <g id="Group_1334" data-name="Group 1334">
            <path id="Path_758" data-name="Path 758" d="M1293.73,845.584l7.835-1.8V830.045l-7.835,2.249Z" fill="#0a6fe5"/>
            <path id="Path_759" data-name="Path 759" d="M1283.715,847.887l7.164-1.647V833.113l-7.164,2.057Z" fill="#0a6fe5"/>
            <path id="Path_760" data-name="Path 760" d="M1274.526,850l6.575-1.512V835.92l-6.575,1.888Z" fill="#0a6fe5"/>
            <path id="Path_761" data-name="Path 761" d="M1266.068,851.944l6.056-1.392V838.5l-6.056,1.739Z" fill="#0a6fe5"/>
          </g>
          <g id="Group_1335" data-name="Group 1335">
            <path id="Path_762" data-name="Path 762" d="M1293.73,863.394l7.835-1.2V848.455l-7.835,1.649Z" fill="#0a6fe5"/>
            <path id="Path_763" data-name="Path 763" d="M1283.715,864.929l7.164-1.1V850.7l-7.164,1.508Z" fill="#0a6fe5"/>
            <path id="Path_764" data-name="Path 764" d="M1274.526,866.338l6.575-1.008V852.762l-6.575,1.384Z" fill="#0a6fe5"/>
            <path id="Path_765" data-name="Path 765" d="M1266.068,867.634l6.056-.928V854.652l-6.056,1.275Z" fill="#0a6fe5"/>
          </g>
          <g id="Group_1336" data-name="Group 1336">
            <path id="Path_766" data-name="Path 766" d="M1293.73,881.2l7.835-.6V866.865l-7.835,1.049Z" fill="#0a6fe5"/>
            <path id="Path_767" data-name="Path 767" d="M1283.715,881.971l7.164-.549V868.3l-7.164.959Z" fill="#0a6fe5"/>
            <path id="Path_768" data-name="Path 768" d="M1274.526,882.675l6.575-.5V869.6l-6.575.88Z" fill="#0a6fe5"/>
            <path id="Path_769" data-name="Path 769" d="M1266.068,883.324l6.056-.464V870.805l-6.056.81Z" fill="#0a6fe5"/>
          </g>
          <g id="Group_1337" data-name="Group 1337">
            <path id="Path_770" data-name="Path 770" d="M1293.73,899.013h7.835V885.276l-7.835.448Z" fill="#0a6fe5"/>
            <path id="Path_771" data-name="Path 771" d="M1283.715,899.013h7.164V885.887l-7.164.41Z" fill="#0a6fe5"/>
            <path id="Path_772" data-name="Path 772" d="M1274.526,899.013h6.575V886.446l-6.575.376Z" fill="#0a6fe5"/>
            <path id="Path_773" data-name="Path 773" d="M1266.068,899.013h6.056V886.959l-6.056.346Z" fill="#0a6fe5"/>
          </g>
        </g>
      </g>
    </g>
    <g id="Group_1342" data-name="Group 1342">
      <path id="Path_774" data-name="Path 774" d="M1363.3,907.237V790.23l-24.477-13.2-19.354,10.927V907.237Z" fill="#0a6fe5"/>
      <path id="Path_775" data-name="Path 775" d="M1363.3,907.237V790.23l-24.477-13.2V907.237Z" fill="#b3d6ff"/>
      <g id="Group_1341" data-name="Group 1341">
        <path id="Path_776" data-name="Path 776" d="M1344.854,897.505h-3.469V788.473l3.469,1.707Z" fill="#0a6fe5"/>
        <path id="Path_777" data-name="Path 777" d="M1350.332,897.505h-3.3V791.254l3.3,1.621Z" fill="#0a6fe5"/>
        <path id="Path_778" data-name="Path 778" d="M1355.542,897.505h-3.135V793.9l3.135,1.542Z" fill="#0a6fe5"/>
        <path id="Path_779" data-name="Path 779" d="M1360.5,897.505h-2.986v-101.1l2.986,1.469Z" fill="#0a6fe5"/>
      </g>
    </g>
    <g id="Group_1344" data-name="Group 1344">
      <path id="Path_780" data-name="Path 780" d="M1452.07,822.067V805.06l-30.781-13.24-19.476,15.887v15.867l-4.069,3.319v97.36h58.4V823.817Z" fill="#0a6fe5"/>
      <path id="Path_781" data-name="Path 781" d="M1421.289,924.254h34.85V823.817l-34.85-14.021Z" fill="#55a7f9"/>
      <g id="Group_1343" data-name="Group 1343">
        <path id="Path_782" data-name="Path 782" d="M1453.853,841.3l-30.748-8.2V817.957l30.748,9.648Z" fill="#0a6fe5"/>
        <path id="Path_783" data-name="Path 783" d="M1453.853,860.76l-30.748-6.153V839.466l30.748,7.6Z" fill="#0a6fe5"/>
        <path id="Path_784" data-name="Path 784" d="M1453.853,880.219l-30.748-4.1V860.976l30.748,5.546Z" fill="#0a6fe5"/>
        <path id="Path_785" data-name="Path 785" d="M1453.853,899.677l-30.748-2.051V882.485l30.748,3.495Z" fill="#0a6fe5"/>
        <path id="Path_786" data-name="Path 786" d="M1453.853,919.135h-30.748V903.994l30.748,1.444Z" fill="#0a6fe5"/>
      </g>
    </g>
    <g id="Group_1345" data-name="Group 1345">
      <path id="Path_787" data-name="Path 787" d="M1406.916,901.255c-.756-22.053-30.839-39.793-67.865-39.793s-67.108,17.74-67.864,39.793Z" fill="#0a6fe5"/>
      <path id="Path_788" data-name="Path 788" d="M1338.911,855.375c-37.4,0-69.37,18.225-82.227,43.957h2.8v24.922h158.855V899.332h2.8C1408.28,873.6,1376.313,855.375,1338.911,855.375Zm62.311,43.957c-9.743-19.5-33.968-33.311-62.311-33.311s-52.569,13.811-62.311,33.311h-3.872c10.349-20.711,36.078-35.38,66.183-35.38s55.834,14.669,66.182,35.38Z" fill="#4398fc"/>
      <path id="Path_789" data-name="Path 789" d="M1338.911,855.375h0v8.577h0c30.1,0,55.834,14.669,66.182,35.38h-3.871c-9.743-19.5-33.968-33.311-62.311-33.311v58.233h79.427V899.332h2.8C1408.28,873.6,1376.313,855.375,1338.911,855.375Z" fill="#b3d6ff"/>
      <rect id="Rectangle_4301" data-name="Rectangle 4301" width="79.427" height="3.24" transform="translate(1338.911 906.793)" fill="#0a6fe5"/>
    </g>
    <g id="Group_1353" data-name="Group 1353">
      <g id="Group_1352" data-name="Group 1352">
        <path id="Path_790" data-name="Path 790" d="M1552.266,924.023V869.386l-73.427-13.781-44.632,7.213v61.205Z" fill="#4398fc"/>
        <path id="Path_791" data-name="Path 791" d="M1552.266,924.023v-58l-73.428-10.419v68.418Z" fill="#b3d6ff"/>
        <g id="Group_1351" data-name="Group 1351">
          <g id="Group_1346" data-name="Group 1346">
            <path id="Path_792" data-name="Path 792" d="M1497.366,870.512l-14.616-1.653V859.4l14.616,1.961Z" fill="#0a6fe5"/>
            <path id="Path_793" data-name="Path 793" d="M1516.05,872.626l-13.364-1.511V862.08l13.364,1.793Z" fill="#0a6fe5"/>
            <path id="Path_794" data-name="Path 794" d="M1533.19,874.564l-12.266-1.387v-8.65l12.266,1.646Z" fill="#0a6fe5"/>
            <path id="Path_795" data-name="Path 795" d="M1548.97,876.349l-11.3-1.278v-8.3l11.3,1.516Z" fill="#0a6fe5"/>
          </g>
          <g id="Group_1347" data-name="Group 1347">
            <path id="Path_796" data-name="Path 796" d="M1497.366,882.77l-14.616-1.24v-9.455l14.616,1.548Z" fill="#0a6fe5"/>
            <path id="Path_797" data-name="Path 797" d="M1516.05,884.355l-13.364-1.134v-9.034l13.364,1.416Z" fill="#0a6fe5"/>
            <path id="Path_798" data-name="Path 798" d="M1533.19,885.809l-12.266-1.041v-8.649l12.266,1.3Z" fill="#0a6fe5"/>
            <path id="Path_799" data-name="Path 799" d="M1548.97,887.147l-11.3-.958v-8.3l11.3,1.2Z" fill="#0a6fe5"/>
          </g>
          <g id="Group_1348" data-name="Group 1348">
            <path id="Path_800" data-name="Path 800" d="M1497.366,895.027l-14.616-.826v-9.455l14.616,1.135Z" fill="#0a6fe5"/>
            <path id="Path_801" data-name="Path 801" d="M1516.05,896.084l-13.364-.756v-9.034l13.364,1.038Z" fill="#0a6fe5"/>
            <path id="Path_802" data-name="Path 802" d="M1533.19,897.053l-12.266-.694V887.71l12.266.952Z" fill="#0a6fe5"/>
            <path id="Path_803" data-name="Path 803" d="M1548.97,897.945l-11.3-.639v-8.3l11.3.877Z" fill="#0a6fe5"/>
          </g>
          <g id="Group_1349" data-name="Group 1349">
            <path id="Path_804" data-name="Path 804" d="M1497.366,907.284l-14.616-.413v-9.455l14.616.722Z" fill="#0a6fe5"/>
            <path id="Path_805" data-name="Path 805" d="M1516.05,907.813l-13.364-.378V898.4l13.364.66Z" fill="#0a6fe5"/>
            <path id="Path_806" data-name="Path 806" d="M1533.19,908.3l-12.266-.347V899.3l12.266.606Z" fill="#0a6fe5"/>
            <path id="Path_807" data-name="Path 807" d="M1548.97,908.744l-11.3-.32v-8.3l11.3.558Z" fill="#0a6fe5"/>
          </g>
          <g id="Group_1350" data-name="Group 1350">
            <path id="Path_808" data-name="Path 808" d="M1497.366,919.542H1482.75v-9.455l14.616.308Z" fill="#0a6fe5"/>
            <path id="Path_809" data-name="Path 809" d="M1516.05,919.542h-13.364v-9.034l13.364.282Z" fill="#0a6fe5"/>
            <path id="Path_810" data-name="Path 810" d="M1533.19,919.542h-12.266v-8.649l12.266.259Z" fill="#0a6fe5"/>
            <path id="Path_811" data-name="Path 811" d="M1548.97,919.542h-11.3v-8.3l11.3.238Z" fill="#0a6fe5"/>
          </g>
        </g>
      </g>
    </g>
    <g id="Group_1355" data-name="Group 1355">
      <path id="Path_812" data-name="Path 812" d="M1168.173,924.254V807.246l-21.714-13.2-17.169,10.927V924.254Z" fill="#0a6fe5"/>
      <path id="Path_813" data-name="Path 813" d="M1168.173,924.254V807.246l-21.714-13.2V924.254Z" fill="#b3d6ff"/>
      <g id="Group_1354" data-name="Group 1354">
        <path id="Path_814" data-name="Path 814" d="M1151.809,914.522h-3.078V805.489l3.078,1.707Z" fill="#0a6fe5"/>
        <path id="Path_815" data-name="Path 815" d="M1156.669,914.522h-2.924V808.27l2.924,1.622Z" fill="#0a6fe5"/>
        <path id="Path_816" data-name="Path 816" d="M1161.291,914.522h-2.781V810.912l2.781,1.543Z" fill="#0a6fe5"/>
        <path id="Path_817" data-name="Path 817" d="M1165.692,914.522h-2.649v-101.1l2.649,1.469Z" fill="#0a6fe5"/>
      </g>
    </g>
  </g>
</svg>
