<svg xmlns="http://www.w3.org/2000/svg" width="472.717" height="180.231" viewBox="0 0 472.717 180.231">
  <g id="Group_1364" data-name="Group 1364" transform="translate(-716.459 -173.066)" opacity="0.15">
    <g id="Group_1363" data-name="Group 1363" transform="translate(716.459 173.066)">
      <g id="Group_1362" data-name="Group 1362">
        <g id="Group_1358" data-name="Group 1358" transform="translate(33.729 0.987)">
          <rect id="Rectangle_4303" data-name="Rectangle 4303" width="38.128" height="76.51" transform="translate(248.917 88.221)" fill="#0098ff"/>
          <rect id="Rectangle_4304" data-name="Rectangle 4304" width="22.11" height="146.112" transform="translate(297.004 18.62)" fill="#0098ff"/>
          <rect id="Rectangle_4305" data-name="Rectangle 4305" width="33.482" height="106.835" transform="translate(386.801 59.101)" fill="#0098ff"/>
          <path id="Path_818" data-name="Path 818" d="M831.929,251.857c0-31.739,32.85-31.5,32.85,0v68.418h-32.85Z" transform="translate(-711.38 -155.543)" fill="#0098ff" fill-rule="evenodd"/>
          <path id="Path_819" data-name="Path 819" d="M1018.766,218.579v-9.061c0-4.922-2.148-7.775-4.646-8.6v-18.24c0-11.79-3-11.876-3,0v18.23c-2.5.806-4.646,3.649-4.646,8.608v9.009c-9.516,2.04-17.614,9.017-17.614,21.085V341.125h47.64V239.611C1036.5,227.744,1028.333,220.7,1018.766,218.579Z" transform="translate(-658.637 -173.805)" fill="#0098ff"/>
          <rect id="Rectangle_4306" data-name="Rectangle 4306" width="35.762" height="57.666" transform="translate(0 107.066)" fill="#0098ff"/>
          <rect id="Rectangle_4307" data-name="Rectangle 4307" width="70.245" height="28.833" transform="translate(0 135.899)" fill="#0098ff"/>
        </g>
        <g id="Group_1361" data-name="Group 1361">
          <path id="Path_820" data-name="Path 820" d="M943.636,335.243h7.035V256.732h1.312v-24.58l-3.34-1.722v-7.2a43.369,43.369,0,0,1-5.006-7.843v17.3c2.043.573,3.856,3.382,4.23,6.758.421,3.792-1.133,6.866-3.47,6.866a2.737,2.737,0,0,1-.76-.108v89.04Zm0-94.775v-2.126l.16.577,3.087-2.119-2.926,2.73.406,1.5-.632.044Zm-20.5,94.775h20.5V246.2c-2.043-.573-3.856-3.38-4.23-6.758-.42-3.79,1.133-6.865,3.47-6.865a2.785,2.785,0,0,1,.76.107v-17.3c-.574-1.073-1.3-2.39-2.392-4.238v-8.13c4.193.58-.89-4.15-3.237-7.664-2.326-3.482-4.618-11.778-4.549-17.252l0-.154a3.86,3.86,0,0,0-.522-2.156,1.633,1.633,0,0,0,.522-1.279c0-.8-.442-1.452-.986-1.452s-.986.649-.986,1.452a1.632,1.632,0,0,0,.521,1.279,3.86,3.86,0,0,0-.521,2.156c0,.067,0,.132,0,.2.078,5.364-1.186,9.17-4.4,16.51-1.744,3.987-3.42,6.27-3.953,7.438v.919a3.613,3.613,0,0,0,1.877,0v8.13c-.792,1.337-1.389,2.4-1.877,3.287v18.369a5.392,5.392,0,0,1,.705-.048c3.289,0,5.641,3.159,5.251,7.055-.361,3.615-2.956,6.595-5.956,7.006v88.422Zm20.5-96.9v2.126l-.088-.566-.867.827-.43-.7,1.161-.812-.655-4.016.879,3.144Zm-20.5,3.076V235.69l0-.043.281,3.685,4.354-1.854-4.322,2.458.1,1.482Zm-7.55,93.825h7.55V246.821a5.381,5.381,0,0,1-.706.048c-3.289,0-5.641-3.159-5.251-7.055.361-3.615,2.955-6.595,5.956-7.006V214.439a48.008,48.008,0,0,1-5.521,8.794v7.745l-3.342,1.173v24.58h1.312v78.511ZM923.14,202.1c-.218.481-.243.774,0,.919V202.1Zm0,33.589v5.728h-.375l.089-1.148-1.285.746-.339-.709,1.642-.711Z" transform="translate(-649.975 -173.066)" fill="#0070e8" fill-rule="evenodd"/>
          <path id="Path_821" data-name="Path 821" d="M855.953,328.41h7.837v-105.1h2.276v-9.86h-3.793v-8.343h1.769v-4.8h-2.022v-4.55h-4.3v4.55H855.7v4.8h1.771v8.343h-3.793v9.86h2.275Z" transform="translate(-670.342 -165.441)" fill="#0070e8" fill-rule="evenodd"/>
          <path id="Path_822" data-name="Path 822" d="M975.334,328.065h27.89V210.359h-.725v-8.813h-1.086l-1.086-8.51-1.088,8.51h-1.086v8.813h-.723v7.6h-.472a7.645,7.645,0,0,0-1.591-4.68,6.2,6.2,0,0,0-5.109-7.31l-.978-7.66-.978,7.66a6.207,6.207,0,0,0-5.111,7.31,7.645,7.645,0,0,0-1.591,4.68h-.47v-7.6H980.4v-8.813h-1.086l-1.088-8.51-1.085,8.51H976.06v8.813h-.726V328.065Z" transform="translate(-629.454 -166.354)" fill="#0070e8" fill-rule="evenodd"/>
          <rect id="Rectangle_4308" data-name="Rectangle 4308" width="472.717" height="25.64" transform="translate(0 154.591)" fill="#0070e8"/>
          <path id="Path_823" data-name="Path 823" d="M949.527,317.383h26.2v-55.5c0-63.4-26.2-65.943-26.2,0Z" transform="translate(-638.128 -159.518)" fill="#0070e8" fill-rule="evenodd"/>
          <g id="Group_1359" data-name="Group 1359" transform="translate(173.11 53.307)">
            <path id="Path_824" data-name="Path 824" d="M866.01,280.466l-.631,3.451h2.611v1.37h1.187v-1.37h2.612l-.631-3.451Z" transform="translate(-839.519 -190.278)" fill="none"/>
            <path id="Path_825" data-name="Path 825" d="M895.77,285.284l-.631,3.451h2.612v1.37h1.186v-1.37h2.612l-.631-3.451Z" transform="translate(-829.517 -188.658)" fill="none"/>
            <path id="Path_826" data-name="Path 826" d="M892.172,260.948a10.733,10.733,0,0,1-1.971,1.006l2.5,7.589,6.614,20.109c.075-.027.151-.048.224-.075.714-.251,1.419-.525,2.116-.816.143-.06.289-.114.43-.175q1.161-.5,2.287-1.074c.075-.039.154-.072.23-.111q1.276-.659,2.508-1.408c.751-.457,1.466-.971,2.186-1.479l-2.148-2.955Z" transform="translate(-831.177 -196.837)" fill="none"/>
            <path id="Path_827" data-name="Path 827" d="M885.559,286.776l-.631,3.449h2.612V291.6h1.186v-1.371h2.611l-.631-3.449Z" transform="translate(-832.949 -188.157)" fill="none"/>
            <path id="Path_828" data-name="Path 828" d="M889.993,261.955a10.658,10.658,0,0,1-2.259.358v29.16c.434-.007.867-.029,1.3-.049.486-.023.977-.031,1.459-.069q1.435-.12,2.85-.343c.377-.059.745-.139,1.118-.207.565-.107,1.132-.208,1.692-.338.272-.063.541-.14.812-.208.652-.167,1.3-.338,1.945-.537.065-.02.13-.044.2-.064L893.527,272.7Z" transform="translate(-832.006 -196.499)" fill="none"/>
            <path id="Path_829" data-name="Path 829" d="M875.3,285.284l-.631,3.451h2.612v1.37h1.187v-1.37h2.612l-.631-3.451Z" transform="translate(-836.396 -188.658)" fill="none"/>
            <path id="Path_830" data-name="Path 830" d="M888.626,260.862a10.689,10.689,0,0,1-1.569-1.561l-8.151,5.967-15.368,11.25c.1.132.2.266.3.4.249.322.5.637.762.951s.526.636.8.946c.215.246.438.485.659.725.323.35.647.7.982,1.039.136.136.278.269.415.4q.782.77,1.606,1.5c.159.139.319.275.48.413q.808.685,1.65,1.328c.1.076.2.154.3.228l12.081-16.628Z" transform="translate(-840.138 -197.391)" fill="none"/>
            <path id="Path_831" data-name="Path 831" d="M887.05,256.886a10.589,10.589,0,0,1-.345-2.182l-5.788.021-23.365.083a39.99,39.99,0,0,0,.4,5.112c.033.222.072.442.109.664.105.652.231,1.3.369,1.939.068.31.134.621.208.93.138.573.3,1.14.458,1.7.072.247.135.5.211.743l26.271-8.536Z" transform="translate(-842.15 -198.936)" fill="none"/>
            <path id="Path_832" data-name="Path 832" d="M886.7,256.721a10.58,10.58,0,0,1,.35-2.259l-1.47-.477-26.261-8.532c-.228.74-.438,1.482-.623,2.226-.031.126-.071.247-.1.373-.154.649-.269,1.3-.389,1.948-.067.361-.15.715-.206,1.08-.052.33-.079.66-.122.99-.09.688-.183,1.376-.237,2.075-.008.1-.007.194-.013.291-.055.791-.083,1.589-.091,2.393l23.376-.086Z" transform="translate(-842.152 -202.045)" fill="none"/>
            <path id="Path_833" data-name="Path 833" d="M887.525,261.969l-3.607,11.243-5.306,16.531a39.94,39.94,0,0,0,4.31,1.042c.343.064.681.146,1.027.2.962.155,1.923.269,2.882.351.76.065,1.529.092,2.3.114.193.005.386.023.579.025V262.308A10.594,10.594,0,0,1,887.525,261.969Z" transform="translate(-835.072 -196.494)" fill="none"/>
            <path id="Path_834" data-name="Path 834" d="M887.9,259.154a10.585,10.585,0,0,1-1.039-2.04l-1.805.587-25.923,8.424c.109.319.215.64.331.955.061.168.124.338.188.505.208.544.432,1.082.664,1.617.069.159.139.319.211.477.233.517.478,1.027.734,1.534q.126.251.254.5.543,1.04,1.148,2.047c.064.108.126.22.192.329q.706,1.154,1.488,2.263l.025.032,16.022-11.731Z" transform="translate(-841.62 -198.126)" fill="none"/>
            <path id="Path_835" data-name="Path 835" d="M857.979,272.549,857.348,276h2.61v1.369h1.188V276h2.611l-.631-3.451Z" transform="translate(-842.218 -192.938)" fill="none"/>
            <path id="Path_836" data-name="Path 836" d="M889.331,261.979a10.565,10.565,0,0,1-2.042-1.031l-5.94,8.174-11.2,15.422c.78.552,1.587,1.07,2.408,1.566.244.147.5.283.743.425q.832.479,1.689.918.557.285,1.125.552c.35.166.708.318,1.063.474.915.4,1.852.768,2.81,1.1.147.051.293.106.441.155l6.34-19.753Z" transform="translate(-837.917 -196.837)" fill="none"/>
            <path id="Path_837" data-name="Path 837" d="M852.816,262.682l-.631,3.45H854.8v1.37h1.186v-1.37h2.613l-.632-3.45Z" transform="translate(-843.954 -196.254)" fill="none"/>
            <path id="Path_838" data-name="Path 838" d="M907.5,229.524h1.186v-1.37H911.3l-.631-3.451h-5.146l-.631,3.451H907.5Z" transform="translate(-826.239 -209.018)" fill="none"/>
            <path id="Path_839" data-name="Path 839" d="M915.076,237.212h1.187v-1.371h2.612l-.631-3.449H913.1l-.631,3.449h2.612Z" transform="translate(-823.694 -206.435)" fill="none"/>
            <path id="Path_840" data-name="Path 840" d="M898.325,224.821h1.185v-1.371h2.613L901.49,220h-5.146l-.631,3.45h2.612Z" transform="translate(-829.324 -210.599)" fill="none"/>
            <path id="Path_841" data-name="Path 841" d="M886.855,256.2a10.685,10.685,0,0,1,1-1.973l-7.469-5.383L864.2,237.175c-.151.215-.291.44-.439.659-.322.481-.64.963-.942,1.46-.168.275-.329.556-.49.835-.323.563-.637,1.134-.935,1.718-.106.2-.211.4-.313.611a39.848,39.848,0,0,0-1.943,4.74l25.916,8.42Z" transform="translate(-841.618 -204.827)" fill="none"/>
            <path id="Path_842" data-name="Path 842" d="M887.54,223.214h1.186v-1.371h2.611l-.631-3.449h-5.146l-.631,3.449h2.612Z" transform="translate(-832.949 -211.139)" fill="none"/>
            <path id="Path_843" data-name="Path 843" d="M919.894,246.046h1.188v-1.37h2.61l-.631-3.451h-5.148l-.63,3.451h2.61Z" transform="translate(-822.075 -203.465)" fill="none"/>
            <path id="Path_844" data-name="Path 844" d="M876.711,224.821H877.9v-1.371h2.612l-.631-3.45H874.73l-.631,3.45h2.612Z" transform="translate(-836.588 -210.599)" fill="none"/>
            <path id="Path_845" data-name="Path 845" d="M854.491,257.405v-1.37h2.61l-.631-3.45h-5.146l-.631,3.45H853.3v1.37Z" transform="translate(-844.455 -199.648)" fill="none"/>
            <path id="Path_846" data-name="Path 846" d="M855.14,246.046h1.187v-1.37h2.611l-.631-3.451h-5.148l-.631,3.451h2.612Z" transform="translate(-843.838 -203.465)" fill="none"/>
            <path id="Path_847" data-name="Path 847" d="M859.958,237.212h1.188v-1.371h2.611l-.631-3.449h-5.147l-.631,3.449h2.61Z" transform="translate(-842.218 -206.435)" fill="none"/>
            <path id="Path_848" data-name="Path 848" d="M867.531,229.524h1.187v-1.37h2.611L870.7,224.7h-5.146l-.632,3.451h2.612Z" transform="translate(-839.673 -209.018)" fill="none"/>
            <path id="Path_849" data-name="Path 849" d="M895.372,254.672a10.67,10.67,0,0,1-.35,2.261l10.5,3.412,17.226,5.6q.343-1.11.621-2.223c.032-.126.072-.25.1-.377.154-.645.267-1.292.387-1.937.067-.365.151-.723.208-1.092.051-.323.076-.645.119-.969.091-.7.184-1.391.239-2.1.007-.083.005-.166.012-.249.056-.8.083-1.614.091-2.429l-19.043.068Z" transform="translate(-829.556 -198.981)" fill="none"/>
            <path id="Path_850" data-name="Path 850" d="M918.259,262.682l-.632,3.45h2.613v1.37h1.186v-1.37h2.613l-.632-3.45Z" transform="translate(-821.959 -196.254)" fill="none"/>
            <path id="Path_851" data-name="Path 851" d="M909.762,284.245c.8-.608,1.568-1.252,2.321-1.919.325-.289.637-.588.953-.886.589-.56,1.167-1.132,1.724-1.729.183-.2.374-.386.554-.587.683-.764,1.331-1.565,1.956-2.385.111-.146.219-.291.329-.437l-11.208-8.079-12.437-8.969a10.72,10.72,0,0,1-1.615,1.622l14.09,19.395,3.053,4.2.016-.011C909.587,284.391,909.671,284.313,909.762,284.245Z" transform="translate(-830.459 -197.406)" fill="none"/>
            <path id="Path_852" data-name="Path 852" d="M895.021,257.115a10.687,10.687,0,0,1-1,1.973l11.8,8.508,11.857,8.548c.154-.219.3-.448.445-.669.319-.476.636-.955.935-1.447.17-.278.331-.56.493-.842q.485-.842.934-1.713c.1-.2.211-.406.313-.613a39.979,39.979,0,0,0,1.943-4.739l-16.881-5.485Z" transform="translate(-829.892 -198.125)" fill="none"/>
            <path id="Path_853" data-name="Path 853" d="M913.1,272.549,912.464,276h2.612v1.369h1.187V276h2.612l-.631-3.451Z" transform="translate(-823.694 -192.938)" fill="none"/>
            <path id="Path_854" data-name="Path 854" d="M919.75,252.585l-.631,3.45h2.61v1.37h1.188v-1.37h2.611l-.632-3.45Z" transform="translate(-821.458 -199.648)" fill="none"/>
            <path id="Path_855" data-name="Path 855" d="M887.055,255.621A10.642,10.642,0,0,1,888.669,254l-5.056-6.958-12.086-16.636-.044.032q-1.08.814-2.1,1.7c-.089.076-.175.159-.265.237q-.894.784-1.738,1.618c-.127.126-.253.253-.378.379-.4.408-.8.822-1.178,1.247-.115.128-.23.259-.343.389q-.575.653-1.124,1.331c-.116.144-.231.293-.346.44-.2.262-.4.532-.6.8l15.541,11.207Z" transform="translate(-840.181 -207.102)" fill="none"/>
            <path id="Path_856" data-name="Path 856" d="M900.049,216.411h0a50.578,50.578,0,0,0,0,101.156h0a50.578,50.578,0,1,0,0-101.156Zm43.23,31.8a3.653,3.653,0,0,1,2.846,1.357l.632,3.451a3.663,3.663,0,0,1-6.957,0l.632-3.451A3.653,3.653,0,0,1,943.279,248.209Zm-9.286-10.446a3.66,3.66,0,0,1,5.694,0l.631,3.448a3.663,3.663,0,0,1-6.957,0Zm-10.118-10.272a3.66,3.66,0,0,1,5.694,0l.632,3.451a3.664,3.664,0,0,1-6.957,0Zm-12.263-6.285a3.661,3.661,0,0,1,5.693,0l.632,3.451a3.664,3.664,0,0,1-6.957,0ZM897.2,219.06a3.661,3.661,0,0,1,5.693,0l.632,3.448a3.663,3.663,0,0,1-6.957,0Zm-14.469,2.146a3.661,3.661,0,0,1,5.693,0l.632,3.451a3.664,3.664,0,0,1-6.957,0Zm-12.264,6.285a3.659,3.659,0,0,1,5.693,0l.632,3.451a3.664,3.664,0,0,1-6.957,0Zm-10.117,10.272a3.659,3.659,0,0,1,5.693,0l.631,3.448a3.663,3.663,0,0,1-6.957,0Zm-6.44,11.8a3.665,3.665,0,0,1,5.694,0l.631,3.451a3.662,3.662,0,0,1-6.956,0Zm-3.084,18.626.632-3.45a3.661,3.661,0,0,1,5.693,0l.632,3.45a3.663,3.663,0,0,1-6.957,0ZM856.3,284.2a3.665,3.665,0,0,1-3.479-2.516l.632-3.45a3.662,3.662,0,0,1,5.694,0l.631,3.45A3.664,3.664,0,0,1,856.3,284.2Zm6.9,13.182a3.667,3.667,0,0,1-3.479-2.513l.633-3.451a3.661,3.661,0,0,1,5.693,0l.631,3.451A3.662,3.662,0,0,1,863.2,297.381Zm10.73,10.578a3.662,3.662,0,0,1-3.478-2.513l.631-3.451a3.662,3.662,0,0,1,5.694,0l.632,3.451A3.664,3.664,0,0,1,873.929,307.958Zm12.418,6.439a3.665,3.665,0,0,1-3.479-2.514l.632-3.451a3.662,3.662,0,0,1,5.694,0l.631,3.451A3.662,3.662,0,0,1,886.347,314.4Zm13.7,1.993a3.663,3.663,0,0,1-3.478-2.516l.632-3.45a3.663,3.663,0,0,1,5.693,0l.632,3.45A3.666,3.666,0,0,1,900.049,316.39Zm13.644-1.993a3.662,3.662,0,0,1-3.478-2.514l.631-3.451a3.662,3.662,0,0,1,5.694,0l.631,3.451A3.664,3.664,0,0,1,913.693,314.4Zm2.051-9.852c-.024.011-.049.019-.073.029q-1.353.561-2.752,1.023c-.206.069-.414.131-.621.2q-1.116.351-2.259.641-.447.114-.9.219c-.663.151-1.333.282-2.008.4-.25.044-.494.108-.744.148-.124.02-.251.025-.375.044-.571.084-1.149.143-1.728.2-.454.048-.906.108-1.364.14-.374.027-.755.027-1.132.043-.625.027-1.248.071-1.877.069a40.751,40.751,0,0,1-4.615-.313c-.476-.055-.957-.1-1.427-.17-.053-.009-.105-.011-.158-.02-.277-.043-.552-.114-.827-.163-.706-.126-1.41-.255-2.1-.417-.2-.045-.39-.1-.587-.154-.636-.158-1.273-.309-1.9-.5-.2-.059-.385-.132-.578-.194-.036-.012-.072-.019-.108-.031s-.094-.037-.143-.053a40.551,40.551,0,0,1-6.734-2.882c-.251-.135-.5-.278-.745-.418q-1.014-.575-1.992-1.208c-.274-.176-.552-.346-.82-.528q-1.18-.8-2.3-1.685c-.315-.249-.616-.512-.923-.768-.476-.4-.945-.8-1.4-1.224-.317-.291-.631-.583-.937-.882-.114-.111-.235-.214-.347-.326-.178-.178-.333-.377-.506-.559-.593-.617-1.172-1.245-1.724-1.9-.293-.345-.574-.7-.856-1.051q-.706-.892-1.36-1.818c-.3-.424-.594-.85-.879-1.285-.374-.576-.723-1.165-1.068-1.758-.285-.49-.575-.975-.839-1.478-.059-.111-.128-.215-.186-.327-.178-.346-.315-.711-.484-1.062-.35-.729-.7-1.458-1.006-2.211-.192-.472-.351-.955-.525-1.435-.271-.743-.547-1.483-.774-2.247-.179-.595-.314-1.2-.465-1.806-.163-.656-.342-1.3-.473-1.971-.167-.847-.277-1.706-.39-2.565-.059-.442-.142-.876-.184-1.323-.116-1.17-.166-2.35-.179-3.537,0-.152-.023-.3-.023-.452,0-.017,0-.033,0-.051,0-1.186.072-2.378.18-3.571.017-.2.015-.4.035-.589.073-.705.211-1.414.323-2.12.105-.676.186-1.36.325-2.026.045-.215.118-.43.166-.647.259-1.145.548-2.277.9-3.383.007-.017.009-.035.015-.052.049-.154.118-.3.17-.449.371-1.114.776-2.215,1.24-3.285.18-.417.394-.81.587-1.217.369-.779.734-1.559,1.15-2.31.329-.6.7-1.16,1.053-1.733.329-.529.643-1.068.994-1.579.452-.657.941-1.28,1.426-1.907.311-.4.609-.811.935-1.2.525-.628,1.085-1.219,1.645-1.809.263-.281.5-.583.775-.854.105-.106.219-.2.325-.306.254-.247.513-.486.772-.725.727-.676,1.474-1.329,2.247-1.951.111-.088.215-.184.327-.271.915-.719,1.872-1.387,2.849-2.026.176-.116.353-.23.53-.342a40.5,40.5,0,0,1,9.981-4.579c.079-.024.16-.04.239-.063.373-.11.752-.2,1.128-.3.665-.175,1.332-.343,2.009-.485s1.354-.283,2.038-.391c.065-.011.132-.013.2-.023.363-.056.734-.087,1.1-.132a40.4,40.4,0,0,1,4.9-.343c.684,0,1.371.043,2.057.076.313.013.629.012.941.035.418.029.838.086,1.257.128.632.064,1.263.13,1.885.222.111.017.223.023.335.04.233.037.466.1.7.139.677.118,1.351.249,2.016.4.253.057.505.122.758.184q1.158.287,2.287.639c.114.035.227.057.339.094s.223.082.337.119q.751.248,1.491.525c.3.112.6.23.891.349.444.178.886.357,1.32.549.4.179.8.37,1.2.561.319.154.641.3.957.462.72.37,1.428.756,2.119,1.165.258.152.5.325.754.481.5.31,1,.619,1.479.949.452.309.883.637,1.32.963.277.206.557.406.83.62.436.342.855.7,1.276,1.058.26.222.521.442.775.671.4.357.786.724,1.168,1.1.143.138.293.267.433.408.082.081.152.174.234.257.779.794,1.53,1.611,2.238,2.462.063.075.131.146.192.22.739.9,1.431,1.836,2.088,2.794.2.294.391.6.585.9q.663,1.022,1.263,2.078c.207.366.418.728.615,1.1.066.123.14.241.2.365.178.345.314.707.481,1.057.351.731.7,1.462,1.01,2.217.192.472.35.955.525,1.435.27.743.545,1.483.772,2.246.179.6.314,1.206.466,1.812.163.653.341,1.3.472,1.967.168.848.278,1.71.393,2.572.057.44.139.871.183,1.315.116,1.176.167,2.361.179,3.553,0,.147.023.29.023.438,0,.016,0,.032,0,.048,0,1.189-.072,2.385-.182,3.583-.016.191-.013.386-.033.577-.075.711-.212,1.423-.326,2.135-.105.671-.184,1.349-.322,2.009-.048.224-.122.448-.174.672-.257,1.134-.542,2.258-.893,3.355-.005.019-.009.037-.015.056-.089.277-.207.534-.3.807-.322.934-.647,1.867-1.033,2.767-.274.643-.6,1.249-.9,1.872-.251.51-.472,1.039-.744,1.539-.623,1.15-1.3,2.258-2.021,3.33-.017.024-.036.047-.053.071q-1.056,1.563-2.246,3c-.13.159-.275.3-.407.46-.683.806-1.384,1.591-2.123,2.337-.051.051-.094.108-.144.159-.644.644-1.313,1.263-2,1.861-.216.19-.442.365-.663.549q-.956.8-1.961,1.546c-.23.168-.458.339-.692.5-.871.616-1.76,1.212-2.682,1.76A40.617,40.617,0,0,1,915.744,304.545Zm10.367,3.414a3.665,3.665,0,0,1-3.479-2.513l.631-3.451a3.662,3.662,0,0,1,5.694,0l.631,3.451A3.662,3.662,0,0,1,926.11,307.958Zm10.73-10.578a3.664,3.664,0,0,1-3.479-2.513l.632-3.451a3.662,3.662,0,0,1,5.694,0l.631,3.451A3.662,3.662,0,0,1,936.84,297.381Zm6.9-13.182a3.663,3.663,0,0,1-3.478-2.516l.631-3.45h0a3.661,3.661,0,0,1,5.693,0l.633,3.45A3.667,3.667,0,0,1,943.739,284.2Zm1.992-13.492a3.66,3.66,0,0,1-3.477-2.515l.629-3.45a3.664,3.664,0,0,1,5.7,0l.631,3.45A3.663,3.663,0,0,1,945.731,270.707Z" transform="translate(-844.866 -211.806)" fill="none"/>
            <path id="Path_857" data-name="Path 857" d="M905.063,280.466l-.63,3.451h2.61v1.37h1.187v-1.37h2.612l-.631-3.451Z" transform="translate(-826.393 -190.278)" fill="none"/>
            <path id="Path_858" data-name="Path 858" d="M883.987,243.26,887.519,254a10.674,10.674,0,0,1,2.259-.357V224.479c-.194,0-.385.019-.579.024a39.888,39.888,0,0,0-4.516.383c-.214.031-.43.044-.643.079-.35.055-.689.138-1.037.2-.612.115-1.227.222-1.832.365l-.078.021q-1.359.325-2.689.742Z" transform="translate(-835.141 -209.094)" fill="none"/>
            <path id="Path_859" data-name="Path 859" d="M889.92,253.983l3.607-11.242,5.3-16.529-.029-.011c-.763-.232-1.528-.433-2.294-.617-.131-.032-.259-.071-.391-.1-.577-.134-1.156-.235-1.734-.342-.335-.061-.665-.134-1-.187q-1.457-.23-2.914-.351c-.5-.04-1.011-.049-1.518-.072-.4-.017-.81-.04-1.213-.045v29.16A10.608,10.608,0,0,1,889.92,253.983Z" transform="translate(-832.006 -209.092)" fill="none"/>
            <path id="Path_860" data-name="Path 860" d="M887.287,254.8a10.592,10.592,0,0,1,1.969-1l-2.5-7.59-6.612-20.1c-.18.063-.359.126-.538.191q-1.225.441-2.42.962c-.383.168-.768.331-1.145.51-.3.142-.6.283-.892.432-.768.389-1.526.795-2.265,1.232-.21.123-.41.259-.617.386-.6.371-1.2.755-1.782,1.158-.114.078-.224.159-.337.238l11.2,15.409Z" transform="translate(-837.915 -208.546)" fill="none"/>
            <path id="Path_861" data-name="Path 861" d="M906.427,234.6,892.337,254a10.624,10.624,0,0,1,1.569,1.561l12.484-9.139,11.035-8.078c-.069-.095-.139-.19-.211-.282-.633-.827-1.3-1.634-1.995-2.41-.174-.192-.355-.375-.532-.564-.528-.564-1.081-1.108-1.642-1.643-.338-.319-.673-.641-1.022-.951-.613-.544-1.25-1.064-1.9-1.571-.216-.17-.421-.353-.641-.517Z" transform="translate(-830.459 -207.103)" fill="none"/>
            <path id="Path_862" data-name="Path 862" d="M890.147,253.8a10.653,10.653,0,0,1,2.043,1.031l14.974-20.61,2.151-2.959c-.672-.474-1.34-.953-2.047-1.387-.035-.023-.068-.047-.1-.069-.688-.422-1.394-.819-2.108-1.2-.279-.148-.568-.285-.851-.426-.41-.206-.82-.41-1.239-.6s-.828-.365-1.248-.54q-.445-.186-.9-.363c-.474-.184-.955-.362-1.44-.529-.108-.037-.218-.071-.325-.107l-6.341,19.757Z" transform="translate(-831.195 -208.571)" fill="none"/>
            <path id="Path_863" data-name="Path 863" d="M893.993,254.226a10.646,10.646,0,0,1,1.038,2.039l10.84-3.522,16.888-5.487c-.11-.321-.215-.643-.333-.961-.061-.166-.122-.331-.184-.5q-.319-.824-.672-1.633c-.067-.152-.132-.3-.2-.454q-.359-.794-.752-1.571-.114-.227-.231-.453-.547-1.048-1.156-2.063c-.066-.111-.127-.223-.2-.333q-.7-1.148-1.479-2.25l-.033-.044-11.689,8.559Z" transform="translate(-829.902 -204.886)" fill="none"/>
            <path id="Path_864" data-name="Path 864" d="M895.022,254.462a10.686,10.686,0,0,1,.346,2.183l10.12-.036,19.033-.07a39.99,39.99,0,0,0-.4-5.111c-.032-.223-.072-.445-.108-.667-.107-.649-.231-1.293-.369-1.933-.068-.313-.134-.625-.21-.935-.136-.569-.293-1.129-.454-1.687-.072-.251-.136-.508-.215-.758l-17.237,5.6Z" transform="translate(-829.556 -202.046)" fill="none"/>
            <path id="Path_865" data-name="Path 865" d="M888.2,224.7a3.664,3.664,0,0,0,3.479-2.516l-.632-3.448a3.661,3.661,0,0,0-5.693,0l-.632,3.448A3.661,3.661,0,0,0,888.2,224.7Zm-2.573-5.964h5.147l.632,3.448h-2.612v1.371h-1.185v-1.371H885Z" transform="translate(-833.018 -211.481)" fill="#0070e8"/>
            <path id="Path_866" data-name="Path 866" d="M900.27,215.75h0a51.461,51.461,0,0,0,0,102.921h0a51.461,51.461,0,1,0,0-102.921Zm0,102.04h0a50.578,50.578,0,0,1,0-101.156h0a50.578,50.578,0,1,1,0,101.156Z" transform="translate(-845.087 -212.028)" fill="#0070e8"/>
            <path id="Path_867" data-name="Path 867" d="M898.986,226.306a3.663,3.663,0,0,0,3.479-2.513l-.632-3.451a3.661,3.661,0,0,0-5.693,0l-.632,3.451A3.662,3.662,0,0,0,898.986,226.306Zm-2.573-5.964h5.147l.632,3.451h-2.612v1.371h-1.185v-1.371h-2.612Z" transform="translate(-829.393 -210.941)" fill="#0070e8"/>
            <path id="Path_868" data-name="Path 868" d="M908.165,231.01a3.664,3.664,0,0,0,3.479-2.513l-.632-3.451a3.66,3.66,0,0,0-5.694,0l-.631,3.451A3.662,3.662,0,0,0,908.165,231.01Zm-2.573-5.964h5.147l.632,3.451h-2.612v1.369h-1.185V228.5h-2.612Z" transform="translate(-826.308 -209.36)" fill="#0070e8"/>
            <path id="Path_869" data-name="Path 869" d="M915.738,238.7a3.661,3.661,0,0,0,3.478-2.516l-.631-3.448a3.66,3.66,0,0,0-5.694,0l-.632,3.448A3.663,3.663,0,0,0,915.738,238.7Zm-2.575-5.964h5.148l.632,3.448h-2.612v1.371h-1.187v-1.371h-2.612Z" transform="translate(-823.763 -206.777)" fill="#0070e8"/>
            <path id="Path_870" data-name="Path 870" d="M920.557,247.533a3.665,3.665,0,0,0,3.478-2.514l-.632-3.451a3.663,3.663,0,0,0-5.693,0l-.632,3.451A3.665,3.665,0,0,0,920.557,247.533Zm-2.575-5.966h5.148l.631,3.451H921.15v1.369h-1.188v-1.369h-2.611Z" transform="translate(-822.144 -203.807)" fill="#0070e8"/>
            <path id="Path_871" data-name="Path 871" d="M925.24,252.927a3.664,3.664,0,0,0-5.7,0l-.629,3.45a3.662,3.662,0,0,0,6.956,0Zm-2.254,3.45v1.371H921.8v-1.371h-2.611l.631-3.45h5.147l.633,3.45Z" transform="translate(-821.526 -199.99)" fill="#0070e8"/>
            <path id="Path_872" data-name="Path 872" d="M920.9,261.665a3.655,3.655,0,0,0-2.847,1.359h0l-.631,3.45a3.663,3.663,0,0,0,6.957,0l-.633-3.45A3.652,3.652,0,0,0,920.9,261.665Zm3.205,4.809h-2.612v1.371h-1.186v-1.371H917.7l.632-3.45h5.147Z" transform="translate(-822.028 -196.596)" fill="#0070e8"/>
            <path id="Path_873" data-name="Path 873" d="M915.738,271.532a3.655,3.655,0,0,0-2.847,1.359l-.632,3.451a3.664,3.664,0,0,0,6.957,0l-.631-3.451A3.658,3.658,0,0,0,915.738,271.532Zm3.205,4.81h-2.612v1.37h-1.187v-1.37h-2.612l.631-3.451h5.148Z" transform="translate(-823.763 -193.28)" fill="#0070e8"/>
            <path id="Path_874" data-name="Path 874" d="M907.707,279.449a3.657,3.657,0,0,0-2.848,1.359l-.631,3.451a3.663,3.663,0,0,0,6.956,0l-.631-3.451A3.656,3.656,0,0,0,907.707,279.449Zm3.2,4.81H908.3v1.369h-1.187v-1.369H904.5l.631-3.451h5.148Z" transform="translate(-826.462 -190.619)" fill="#0070e8"/>
            <path id="Path_875" data-name="Path 875" d="M898.413,284.267a3.655,3.655,0,0,0-2.847,1.359l-.631,3.451a3.662,3.662,0,0,0,6.956,0l-.631-3.451A3.657,3.657,0,0,0,898.413,284.267Zm3.205,4.81h-2.612v1.37H897.82v-1.37h-2.612l.631-3.451h5.148Z" transform="translate(-829.586 -189)" fill="#0070e8"/>
            <path id="Path_876" data-name="Path 876" d="M877.372,226.306a3.661,3.661,0,0,0,3.479-2.513l-.632-3.451a3.661,3.661,0,0,0-5.693,0l-.632,3.451A3.663,3.663,0,0,0,877.372,226.306Zm-2.573-5.964h5.146l.632,3.451h-2.612v1.371H876.78v-1.371h-2.612Z" transform="translate(-836.657 -210.941)" fill="#0070e8"/>
            <path id="Path_877" data-name="Path 877" d="M868.194,231.01a3.662,3.662,0,0,0,3.478-2.513l-.632-3.451a3.659,3.659,0,0,0-5.693,0l-.632,3.451A3.662,3.662,0,0,0,868.194,231.01Zm-2.573-5.964h5.146l.631,3.451h-2.611v1.369H867.6V228.5h-2.611Z" transform="translate(-839.742 -209.36)" fill="#0070e8"/>
            <path id="Path_878" data-name="Path 878" d="M860.621,238.7a3.661,3.661,0,0,0,3.478-2.516l-.631-3.448a3.659,3.659,0,0,0-5.693,0l-.633,3.448A3.665,3.665,0,0,0,860.621,238.7Zm-2.573-5.964h5.147l.631,3.448h-2.609v1.371h-1.188v-1.371h-2.611Z" transform="translate(-842.287 -206.777)" fill="#0070e8"/>
            <path id="Path_879" data-name="Path 879" d="M855.8,247.533a3.664,3.664,0,0,0,3.478-2.514l-.631-3.451a3.665,3.665,0,0,0-5.694,0l-.631,3.451A3.664,3.664,0,0,0,855.8,247.533Zm-2.573-5.966h5.147l.632,3.451H856.4v1.369h-1.186v-1.369H852.6Z" transform="translate(-843.907 -203.807)" fill="#0070e8"/>
            <path id="Path_880" data-name="Path 880" d="M857.445,256.377l-.632-3.45a3.661,3.661,0,0,0-5.693,0l-.632,3.45a3.663,3.663,0,0,0,6.957,0Zm-6.683,0,.631-3.45h5.147l.631,3.45H854.56v1.371h-1.188v-1.371Z" transform="translate(-844.524 -199.99)" fill="#0070e8"/>
            <path id="Path_881" data-name="Path 881" d="M858.305,263.024a3.662,3.662,0,0,0-5.694,0l-.632,3.45a3.663,3.663,0,0,0,6.957,0Zm-2.255,3.45v1.371h-1.185v-1.371h-2.612l.632-3.45h5.147l.632,3.45Z" transform="translate(-844.023 -196.596)" fill="#0070e8"/>
            <path id="Path_882" data-name="Path 882" d="M860.621,271.532a3.654,3.654,0,0,0-2.846,1.359l-.633,3.451a3.664,3.664,0,0,0,6.957,0l-.631-3.451A3.657,3.657,0,0,0,860.621,271.532Zm3.2,4.81h-2.609v1.37h-1.188v-1.37h-2.611l.631-3.451h5.147Z" transform="translate(-842.287 -193.28)" fill="#0070e8"/>
            <path id="Path_883" data-name="Path 883" d="M868.652,279.449a3.659,3.659,0,0,0-2.847,1.359l-.631,3.451a3.664,3.664,0,0,0,6.957,0l-.632-3.451A3.657,3.657,0,0,0,868.652,279.449Zm3.205,4.81h-2.612v1.369h-1.187v-1.369h-2.611l.631-3.451h5.148Z" transform="translate(-839.588 -190.619)" fill="#0070e8"/>
            <path id="Path_884" data-name="Path 884" d="M877.946,284.267a3.655,3.655,0,0,0-2.847,1.359l-.632,3.451a3.663,3.663,0,0,0,6.957,0l-.631-3.451A3.659,3.659,0,0,0,877.946,284.267Zm3.205,4.81h-2.612v1.37h-1.187v-1.37h-2.612l.631-3.451h5.148Z" transform="translate(-836.465 -189)" fill="#0070e8"/>
            <path id="Path_885" data-name="Path 885" d="M888.2,285.76a3.653,3.653,0,0,0-2.846,1.357l-.632,3.45a3.663,3.663,0,0,0,6.957,0l-.632-3.45A3.655,3.655,0,0,0,888.2,285.76Zm3.205,4.807h-2.612v1.371h-1.185v-1.371H885l.631-3.45h5.147Z" transform="translate(-833.018 -188.498)" fill="#0070e8"/>
            <path id="Path_886" data-name="Path 886" d="M921.724,297.247q1.006-.744,1.961-1.546c.22-.184.446-.359.663-.549.685-.6,1.355-1.217,2-1.861.051-.051.094-.108.144-.159.739-.746,1.44-1.531,2.123-2.337.132-.156.278-.3.407-.46q1.187-1.443,2.246-3c.017-.024.036-.047.053-.071.721-1.072,1.4-2.179,2.021-3.33.273-.5.493-1.029.744-1.539.3-.623.628-1.229.9-1.872.386-.9.711-1.833,1.033-2.767.094-.273.211-.53.3-.807.005-.019.009-.037.015-.056.35-1.1.636-2.221.893-3.355.052-.224.126-.448.174-.672.138-.66.216-1.339.322-2.009.114-.712.251-1.424.326-2.135.02-.191.017-.386.033-.577.109-1.2.18-2.394.182-3.583,0-.016,0-.032,0-.048,0-.148-.021-.291-.023-.438-.012-1.192-.063-2.377-.179-3.553-.044-.444-.126-.875-.183-1.315-.115-.862-.224-1.724-.393-2.572-.131-.667-.309-1.313-.472-1.967-.152-.605-.287-1.216-.466-1.812-.227-.763-.5-1.5-.772-2.246-.175-.48-.333-.963-.525-1.435-.309-.755-.659-1.486-1.01-2.217-.167-.35-.3-.712-.481-1.057-.063-.124-.138-.242-.2-.365-.2-.373-.407-.735-.615-1.1q-.6-1.058-1.263-2.078c-.194-.3-.382-.6-.585-.9-.657-.958-1.349-1.892-2.088-2.794-.062-.075-.13-.146-.192-.22-.708-.851-1.459-1.669-2.238-2.462-.082-.083-.152-.175-.234-.257-.14-.14-.29-.27-.433-.408-.382-.373-.77-.74-1.168-1.1-.254-.228-.514-.449-.775-.671-.421-.358-.84-.716-1.276-1.058-.273-.214-.553-.414-.83-.62-.437-.326-.868-.655-1.32-.963-.484-.33-.982-.639-1.479-.949-.254-.156-.5-.329-.754-.481-.691-.409-1.4-.795-2.119-1.165-.315-.163-.637-.309-.957-.462-.4-.191-.791-.382-1.2-.561-.434-.192-.876-.371-1.32-.549-.3-.119-.592-.236-.891-.349q-.74-.277-1.491-.525c-.114-.037-.223-.082-.337-.119s-.226-.059-.339-.094q-1.13-.353-2.287-.639c-.253-.063-.505-.127-.758-.184-.665-.151-1.339-.282-2.016-.4-.233-.041-.466-.1-.7-.139-.112-.017-.224-.023-.335-.04-.623-.092-1.253-.158-1.885-.222-.42-.043-.839-.1-1.257-.128-.311-.023-.628-.021-.941-.035-.687-.033-1.373-.079-2.057-.076a40.4,40.4,0,0,0-4.9.343c-.366.045-.736.076-1.1.132-.064.009-.131.012-.2.023-.684.108-1.361.249-2.038.391s-1.344.31-2.009.485c-.375.1-.755.186-1.128.3-.079.023-.16.039-.239.063a40.5,40.5,0,0,0-9.981,4.579c-.178.112-.354.226-.53.342-.977.639-1.933,1.307-2.849,2.026-.112.087-.216.183-.327.271-.774.621-1.521,1.275-2.247,1.951-.259.239-.518.478-.772.725-.105.1-.219.2-.325.306-.271.271-.512.573-.775.854-.56.591-1.12,1.181-1.645,1.809-.326.389-.624.8-.935,1.2-.485.627-.974,1.249-1.426,1.907-.351.512-.665,1.05-.994,1.579-.355.573-.724,1.137-1.053,1.733-.417.751-.782,1.531-1.15,2.31-.192.408-.406.8-.587,1.217-.464,1.07-.868,2.171-1.24,3.285-.052.154-.12.3-.17.449-.005.017-.008.035-.015.052-.353,1.106-.641,2.238-.9,3.383-.048.216-.12.432-.166.647-.139.665-.219,1.349-.325,2.026-.112.707-.25,1.415-.323,2.12-.02.194-.017.394-.035.589-.108,1.193-.179,2.385-.18,3.571,0,.017,0,.033,0,.051,0,.152.021.3.023.452.013,1.186.063,2.366.179,3.537.043.446.126.88.184,1.323.114.859.223,1.718.39,2.565.131.667.31,1.315.473,1.971.151.6.286,1.212.465,1.806.227.764.5,1.5.774,2.247.174.48.333.963.525,1.435.306.754.656,1.482,1.006,2.211.168.351.306.716.484,1.062.057.112.127.216.186.327.265.5.555.987.839,1.478.345.593.693,1.182,1.068,1.758.285.436.58.862.879,1.285q.656.928,1.36,1.818c.282.354.564.707.856,1.051.552.651,1.13,1.279,1.724,1.9.174.182.329.381.506.559.112.112.234.215.347.326.306.3.62.591.937.882.457.42.926.826,1.4,1.224.307.257.608.52.923.768q1.12.882,2.3,1.685c.269.182.547.351.82.528q.978.631,1.992,1.208c.248.14.494.283.745.418a40.551,40.551,0,0,0,6.734,2.882c.049.016.094.037.143.053s.072.019.108.031c.194.061.383.135.578.194.624.188,1.261.339,1.9.5.2.049.391.108.587.154.693.162,1.4.291,2.1.417.275.049.55.12.827.163.052.009.1.011.158.02.47.071.951.115,1.427.17a40.751,40.751,0,0,0,4.615.313c.629,0,1.252-.043,1.877-.069.377-.016.758-.016,1.132-.043.458-.032.91-.092,1.364-.14.579-.06,1.157-.119,1.728-.2.124-.019.251-.024.375-.044.25-.04.494-.1.744-.148.675-.119,1.345-.25,2.008-.4q.451-.1.9-.219,1.144-.289,2.259-.641c.207-.065.416-.127.621-.2q1.4-.465,2.752-1.023c.024-.011.049-.019.073-.029a40.617,40.617,0,0,0,5.09-2.553c.922-.548,1.81-1.144,2.682-1.76C921.266,297.586,921.494,297.415,921.724,297.247Zm-3.411,1.233q-1.228.749-2.508,1.408c-.076.039-.155.072-.23.111q-1.128.573-2.287,1.074c-.142.061-.287.115-.43.175-.7.291-1.4.565-2.116.816-.073.027-.15.048-.224.075L903.9,282.03l-2.5-7.589a10.734,10.734,0,0,0,1.971-1.006l14.974,20.61L920.5,297C919.778,297.509,919.064,298.023,918.313,298.48Zm-9.028,4.066c-.641.2-1.293.37-1.945.537-.271.068-.54.146-.812.208-.56.13-1.126.231-1.692.338-.373.068-.741.148-1.118.207q-1.413.222-2.85.343c-.482.039-.973.047-1.459.069-.432.02-.864.043-1.3.049v-29.16a10.658,10.658,0,0,0,2.259-.358l3.534,10.742,5.578,16.959C909.414,302.5,909.35,302.526,909.285,302.546Zm-12.844,1.736c-.771-.021-1.539-.048-2.3-.114-.959-.083-1.92-.2-2.882-.351-.346-.055-.684-.136-1.027-.2a39.94,39.94,0,0,1-4.31-1.042l5.306-16.531,3.607-11.243a10.594,10.594,0,0,0,2.185.339v29.168C896.827,304.3,896.633,304.287,896.441,304.281Zm-11.994-2.213c-.958-.334-1.895-.7-2.81-1.1-.355-.156-.714-.309-1.063-.474q-.569-.267-1.125-.552-.858-.439-1.689-.918c-.247-.142-.5-.278-.743-.425-.82-.5-1.627-1.014-2.408-1.566l11.2-15.422,5.94-8.174a10.565,10.565,0,0,0,2.042,1.031l-2.568,8-6.34,19.753C884.74,302.174,884.594,302.119,884.447,302.069Zm-11.016-5.918q-.844-.643-1.65-1.328c-.16-.138-.321-.274-.48-.413q-.824-.726-1.606-1.5c-.138-.135-.279-.267-.415-.4-.335-.339-.659-.689-.982-1.039-.22-.24-.444-.48-.659-.725-.271-.31-.534-.628-.8-.946s-.513-.629-.762-.951c-.1-.131-.2-.265-.3-.4l15.368-11.25,8.151-5.967a10.689,10.689,0,0,0,1.569,1.561l-5.056,6.957L873.733,296.38C873.631,296.3,873.531,296.227,873.431,296.151Zm-8.329-8.6q-.784-1.106-1.488-2.263c-.067-.108-.128-.22-.192-.329q-.6-1.008-1.148-2.047-.128-.246-.254-.5c-.255-.506-.5-1.017-.734-1.534-.072-.158-.142-.318-.211-.477-.232-.534-.456-1.073-.664-1.617-.064-.167-.127-.337-.188-.505-.116-.315-.222-.636-.331-.955l25.923-8.424,1.805-.587a10.585,10.585,0,0,0,1.039,2.04l-7.509,5.5-16.022,11.731Zm-5.771-12c-.163-.564-.321-1.13-.458-1.7-.075-.309-.14-.62-.208-.93-.138-.641-.263-1.287-.369-1.939-.037-.222-.076-.442-.109-.664a39.99,39.99,0,0,1-.4-5.112l23.365-.083,5.788-.021a10.589,10.589,0,0,0,.345,2.182l-1.468.477-26.271,8.536C859.466,276.042,859.4,275.792,859.331,275.545Zm-1.467-13.831c.007-.1.005-.194.013-.291.053-.7.147-1.387.237-2.075.043-.33.069-.66.122-.99.056-.365.139-.719.206-1.08.12-.649.235-1.3.389-1.948.029-.126.069-.247.1-.373.184-.744.394-1.486.623-2.226l26.261,8.532,1.47.477a10.58,10.58,0,0,0-.35,2.259l-5.784.021-23.376.086C857.781,263.3,857.809,262.5,857.864,261.714Zm3.976-14.758c.1-.206.207-.408.313-.611.3-.584.612-1.156.935-1.718.162-.279.322-.56.49-.835.3-.5.62-.979.942-1.46.148-.219.289-.444.439-.659l16.189,11.673,7.469,5.383a10.685,10.685,0,0,0-1,1.973l-1.805-.587L859.9,251.7A39.848,39.848,0,0,1,861.84,246.955Zm4.368-6.96c.115-.147.23-.3.346-.44q.547-.679,1.124-1.331c.114-.13.229-.261.343-.389.383-.425.778-.839,1.178-1.247.126-.127.251-.254.378-.379q.844-.834,1.738-1.618c.09-.078.175-.16.265-.237q1.022-.882,2.1-1.7l.044-.032,12.086,16.636,5.056,6.958a10.642,10.642,0,0,0-1.614,1.622L881.149,252l-15.541-11.207C865.807,240.527,866,240.257,866.208,240Zm8.747-8.237c.583-.4,1.178-.787,1.782-1.158.207-.127.408-.263.617-.386.739-.437,1.5-.843,2.265-1.232.3-.148.593-.29.892-.432.377-.179.762-.342,1.145-.51q1.193-.521,2.42-.962c.179-.065.358-.128.538-.191l6.612,20.1,2.5,7.59a10.592,10.592,0,0,0-1.969,1l-5.94-8.174L874.619,232C874.731,231.917,874.842,231.836,874.955,231.758Zm13.458-6c.605-.143,1.22-.25,1.832-.365.347-.064.687-.147,1.037-.2.212-.035.429-.048.643-.079a39.888,39.888,0,0,1,4.516-.383c.194-.005.385-.021.579-.024v29.168a10.674,10.674,0,0,0-2.259.357l-3.533-10.743-5.581-16.966q1.329-.419,2.689-.742Zm10.909-1c.506.023,1.017.032,1.518.072q1.455.122,2.914.351c.338.053.668.126,1,.187.579.107,1.157.208,1.734.342.132.031.26.069.391.1.766.184,1.531.385,2.294.617l.029.011-5.3,16.529L900.3,254.215a10.608,10.608,0,0,0-2.186-.338v-29.16C898.513,224.723,898.918,224.745,899.323,224.763Zm11.246,2.131c.485.167.966.345,1.44.529q.451.176.9.363c.42.175.838.353,1.248.54s.828.4,1.239.6c.283.142.572.278.851.426.715.381,1.42.778,2.108,1.2.036.023.069.047.1.069.707.434,1.375.913,2.047,1.387l-2.151,2.959-14.974,20.61a10.653,10.653,0,0,0-2.043-1.031l2.569-8,6.341-19.757C910.351,226.823,910.461,226.856,910.569,226.894Zm13.377,7.82c.349.31.684.632,1.022.951.561.536,1.114,1.08,1.642,1.643.176.188.358.371.532.564.7.776,1.361,1.583,1.995,2.41.072.092.142.187.211.282l-11.035,8.078-12.484,9.139a10.624,10.624,0,0,0-1.569-1.561l14.09-19.395,3.053-4.2c.22.164.425.347.641.517C922.7,233.65,923.332,234.17,923.946,234.714Zm6.09,6.766q.78,1.1,1.479,2.25c.068.11.13.222.2.333q.607,1.014,1.156,2.063.116.227.231.453.393.778.752,1.571c.068.151.134.3.2.454q.353.808.672,1.633c.063.164.123.33.184.5.118.318.223.64.333.961L918.35,257.18,907.51,260.7a10.646,10.646,0,0,0-1.038-2.039l11.84-8.669L930,241.436Zm5.767,12c.162.558.318,1.118.454,1.687.076.31.142.623.21.935.137.64.262,1.284.369,1.933.036.222.076.444.108.667a39.99,39.99,0,0,1,.4,5.111l-19.033.069-10.12.036a10.686,10.686,0,0,0-.346-2.183l10.5-3.412,17.237-5.6C935.666,252.977,935.73,253.233,935.8,253.485Zm1.463,13.855c-.007.083-.005.166-.012.249-.055.708-.148,1.4-.239,2.1-.043.323-.068.645-.119.969-.057.369-.142.727-.208,1.092-.12.645-.234,1.292-.387,1.937-.029.127-.069.251-.1.377q-.277,1.114-.621,2.223l-17.226-5.6-10.5-3.412a10.67,10.67,0,0,0,.35-2.261l10.115-.036,19.043-.068C937.348,265.726,937.321,266.537,937.265,267.34Zm-3.976,14.72c-.1.207-.208.41-.313.613q-.447.872-.934,1.713c-.162.282-.323.564-.493.842-.3.492-.616.971-.935,1.447-.15.222-.291.45-.445.669L918.313,278.8l-11.8-8.508a10.687,10.687,0,0,0,1-1.973l10.84,3.522,16.881,5.485A39.979,39.979,0,0,1,933.289,282.059ZM918.35,292.19,904.26,272.8a10.72,10.72,0,0,0,1.615-1.622l12.438,8.969,11.208,8.079c-.11.146-.218.291-.329.437-.625.82-1.273,1.621-1.956,2.385-.18.2-.371.39-.554.587-.557.6-1.134,1.169-1.724,1.729-.315.3-.628.6-.953.886-.752.667-1.523,1.311-2.321,1.919-.091.068-.175.146-.266.214l-.016.011Z" transform="translate(-842.382 -209.324)" fill="#0070e8"/>
            <path id="Path_887" data-name="Path 887" d="M887.613,215.246a1.141,1.141,0,1,0-1.14-1.141A1.144,1.144,0,0,0,887.613,215.246Z" transform="translate(-832.43 -212.964)" fill="#0070e8"/>
            <path id="Path_888" data-name="Path 888" d="M887.613,293.86A1.141,1.141,0,1,0,888.754,295,1.14,1.14,0,0,0,887.613,293.86Z" transform="translate(-832.43 -185.776)" fill="#0070e8"/>
            <path id="Path_889" data-name="Path 889" d="M928.061,253.412a1.141,1.141,0,1,0,1.141,1.142A1.141,1.141,0,0,0,928.061,253.412Z" transform="translate(-818.836 -199.37)" fill="#0070e8"/>
            <path id="Path_890" data-name="Path 890" d="M847.165,253.412a1.141,1.141,0,1,0,1.141,1.142A1.142,1.142,0,0,0,847.165,253.412Z" transform="translate(-846.024 -199.37)" fill="#0070e8"/>
            <path id="Path_891" data-name="Path 891" d="M900.486,217.414a1.141,1.141,0,1,0-.7-1.452A1.141,1.141,0,0,0,900.486,217.414Z" transform="translate(-827.978 -212.214)" fill="#0070e8"/>
            <path id="Path_892" data-name="Path 892" d="M874.74,291.693a1.141,1.141,0,1,0,.7,1.452A1.142,1.142,0,0,0,874.74,291.693Z" transform="translate(-836.882 -186.525)" fill="#0070e8"/>
            <path id="Path_893" data-name="Path 893" d="M912.282,222.478a1.14,1.14,0,1,0-1.593.254A1.139,1.139,0,0,0,912.282,222.478Z" transform="translate(-824.449 -210.375)" fill="#0070e8"/>
            <path id="Path_894" data-name="Path 894" d="M862.944,286.627a1.14,1.14,0,1,0,1.593-.254A1.14,1.14,0,0,0,862.944,286.627Z" transform="translate(-840.411 -188.365)" fill="#0070e8"/>
            <path id="Path_895" data-name="Path 895" d="M920.306,230.711a1.141,1.141,0,1,0-1.6-.2A1.139,1.139,0,0,0,920.306,230.711Z" transform="translate(-821.676 -207.686)" fill="#0070e8"/>
            <path id="Path_896" data-name="Path 896" d="M854.919,278.395a1.142,1.142,0,1,0,1.6.2A1.141,1.141,0,0,0,854.919,278.395Z" transform="translate(-843.183 -191.053)" fill="#0070e8"/>
            <path id="Path_897" data-name="Path 897" d="M926.049,241.9a1.141,1.141,0,1,0-1.46-.687A1.143,1.143,0,0,0,926.049,241.9Z" transform="translate(-819.642 -203.982)" fill="#0070e8"/>
            <path id="Path_898" data-name="Path 898" d="M849.176,267.2a1.141,1.141,0,1,0,1.462.687A1.143,1.143,0,0,0,849.176,267.2Z" transform="translate(-845.218 -194.758)" fill="#0070e8"/>
            <path id="Path_899" data-name="Path 899" d="M926.139,266.928a1.141,1.141,0,1,0,.7,1.456A1.144,1.144,0,0,0,926.139,266.928Z" transform="translate(-819.61 -194.849)" fill="#0070e8"/>
            <path id="Path_900" data-name="Path 900" d="M849.089,242.178a1.141,1.141,0,1,0-.7-1.454A1.143,1.143,0,0,0,849.089,242.178Z" transform="translate(-845.25 -203.891)" fill="#0070e8"/>
            <path id="Path_901" data-name="Path 901" d="M918.616,278.717a1.141,1.141,0,1,0,1.6-.2A1.14,1.14,0,0,0,918.616,278.717Z" transform="translate(-821.708 -191.013)" fill="#0070e8"/>
            <path id="Path_902" data-name="Path 902" d="M856.611,230.39a1.141,1.141,0,1,0-1.6.2A1.143,1.143,0,0,0,856.611,230.39Z" transform="translate(-843.152 -207.727)" fill="#0070e8"/>
            <path id="Path_903" data-name="Path 903" d="M910.382,286.594a1.141,1.141,0,1,0,1.591.27A1.141,1.141,0,0,0,910.382,286.594Z" transform="translate(-824.556 -188.289)" fill="#0070e8"/>
            <path id="Path_904" data-name="Path 904" d="M864.844,222.512a1.14,1.14,0,1,0-1.591-.269A1.14,1.14,0,0,0,864.844,222.512Z" transform="translate(-840.304 -210.451)" fill="#0070e8"/>
            <path id="Path_905" data-name="Path 905" d="M900.711,291.613a1.141,1.141,0,1,0,1.456.7A1.143,1.143,0,0,0,900.711,291.613Z" transform="translate(-827.9 -186.553)" fill="#0070e8"/>
            <path id="Path_906" data-name="Path 906" d="M874.515,217.493a1.141,1.141,0,1,0-1.455-.7A1.138,1.138,0,0,0,874.515,217.493Z" transform="translate(-836.96 -212.187)" fill="#0070e8"/>
          </g>
          <path id="Path_907" data-name="Path 907" d="M1060.464,251.337,1043.053,237.4l-17.411,13.939V262.2l-4.154-3.326-7.761,6.214L1012,263.7l-13.19,10.56v42.815h26.38v-4.832h9.488v-4.395h25.785Z" transform="translate(-621.564 -151.445)" fill="#0070e8"/>
          <g id="Group_1360" data-name="Group 1360" transform="translate(19.784 56.402)">
            <path id="Path_908" data-name="Path 908" d="M767.224,273.731V271.51c-.557.243-1.12.485-1.687.721s-1.12.461-1.687.684v2.611q.854-.435,1.687-.879Q766.388,274.194,767.224,273.731Z" transform="translate(-720.316 -196.382)" fill="none"/>
            <path id="Path_909" data-name="Path 909" d="M767.224,281.382v-7.359q-.836.459-1.687.906-.836.439-1.687.867V282.3c.569-.143,1.13-.291,1.687-.442S766.667,281.545,767.224,281.382Z" transform="translate(-720.316 -195.537)" fill="none"/>
            <path id="Path_910" data-name="Path 910" d="M767.224,286.183v-3.531q-.836.327-1.687.643c-.557.207-1.118.412-1.687.609v2.279Z" transform="translate(-720.316 -192.637)" fill="none"/>
            <path id="Path_911" data-name="Path 911" d="M767.224,282.367v-2.058q-.836.24-1.687.469-.836.227-1.687.44v2.417c.569-.2,1.13-.409,1.687-.617S766.667,282.587,767.224,282.367Z" transform="translate(-720.316 -193.425)" fill="none"/>
            <path id="Path_912" data-name="Path 912" d="M770.5,286.642v-5.355l-.273.122c-.468.206-.938.409-1.415.611q-.834.353-1.687.695v3.928Z" transform="translate(-719.216 -193.096)" fill="none"/>
            <path id="Path_913" data-name="Path 913" d="M773.771,287.164v-7.429q-.832.421-1.687.831-.832.4-1.687.791v5.807Z" transform="translate(-718.115 -193.618)" fill="none"/>
            <path id="Path_914" data-name="Path 914" d="M768.81,272.706q.854-.507,1.688-1.022v-1.716q-.834.421-1.687.827-.363.174-.728.345-.477.222-.959.441v2.107q.253-.142.5-.287C768.021,273.172,768.418,272.939,768.81,272.706Z" transform="translate(-719.216 -196.9)" fill="none"/>
            <path id="Path_915" data-name="Path 915" d="M769.821,281.171l.676-.3v-1.6l-.314.107q-.68.23-1.374.454-.834.269-1.687.525v1.952q.854-.345,1.688-.7C769.149,281.465,769.487,281.319,769.821,281.171Z" transform="translate(-719.216 -193.772)" fill="none"/>
            <path id="Path_916" data-name="Path 916" d="M769.862,280.841c.214-.072.424-.144.635-.218v-8.5q-.834.509-1.687,1.01c-.23.136-.46.269-.691.4-.33.191-.661.379-1,.566v7.617q.854-.261,1.688-.53C769.164,281.076,769.515,280.959,769.862,280.841Z" transform="translate(-719.216 -196.175)" fill="none"/>
            <path id="Path_917" data-name="Path 917" d="M773.771,279.179v-1.122q-.832.335-1.687.659c-.554.21-1.118.417-1.687.62v1.487q.856-.4,1.688-.8Q772.939,279.606,773.771,279.179Z" transform="translate(-718.115 -194.181)" fill="none"/>
            <path id="Path_918" data-name="Path 918" d="M760.677,282.425v-5.2c-.56.24-1.121.477-1.689.708s-1.121.454-1.686.675v4.413c.565-.09,1.129-.184,1.686-.285S760.118,282.534,760.677,282.425Z" transform="translate(-722.516 -194.46)" fill="none"/>
            <path id="Path_919" data-name="Path 919" d="M760.677,284.859v-2.981c-.56.107-1.121.211-1.689.31s-1.121.192-1.686.283V285.8c.565-.148,1.129-.3,1.686-.458S760.118,285.024,760.677,284.859Z" transform="translate(-722.516 -192.897)" fill="none"/>
            <path id="Path_920" data-name="Path 920" d="M760.677,277.226V274c-.56.179-1.121.355-1.689.526s-1.121.33-1.686.489v3.609c.565-.222,1.129-.45,1.686-.681S760.118,277.47,760.677,277.226Z" transform="translate(-722.516 -195.544)" fill="none"/>
            <path id="Path_921" data-name="Path 921" d="M757.4,282.736v-4.187q-.838.315-1.687.616c-.559.2-1.122.391-1.687.58v3.439q.85-.1,1.688-.21T757.4,282.736Z" transform="translate(-723.616 -194.016)" fill="none"/>
            <path id="Path_922" data-name="Path 922" d="M757.4,278.688v-3.721q-.838.222-1.687.433c-.559.136-1.122.269-1.687.4v4.1q.85-.287,1.688-.587T757.4,278.688Z" transform="translate(-723.616 -195.22)" fill="none"/>
            <path id="Path_923" data-name="Path 923" d="M763.95,283.693v-2.521c-.557.134-1.121.263-1.687.388s-1.12.243-1.687.358v2.877q.852-.261,1.687-.534Q763.114,283.981,763.95,283.693Z" transform="translate(-721.416 -193.135)" fill="none"/>
            <path id="Path_924" data-name="Path 924" d="M763.95,281.98v-6.26q-.836.409-1.687.808c-.559.259-1.121.517-1.687.768v5.437q.852-.174,1.687-.362Q763.114,282.183,763.95,281.98Z" transform="translate(-721.416 -194.967)" fill="none"/>
            <path id="Path_925" data-name="Path 925" d="M763.95,275.575v-2.724c-.557.212-1.121.42-1.687.623s-1.121.394-1.687.585v3.11q.852-.383,1.687-.776T763.95,275.575Z" transform="translate(-721.416 -195.931)" fill="none"/>
            <path id="Path_926" data-name="Path 926" d="M758.391,285.432h1.92v-.545c-.56.166-1.121.326-1.689.482Z" transform="translate(-722.15 -191.886)" fill="none"/>
            <path id="Path_927" data-name="Path 927" d="M763.95,285.781v-1.932c-.557.19-1.121.375-1.687.56s-1.12.357-1.687.529v.843Z" transform="translate(-721.416 -192.235)" fill="none"/>
            <path id="Path_928" data-name="Path 928" d="M773.771,279.682v-9.663q-.832.563-1.687,1.12-.832.543-1.687,1.078v8.761q.856-.309,1.688-.628Q772.939,280.023,773.771,279.682Z" transform="translate(-718.115 -196.883)" fill="none"/>
            <path id="Path_929" data-name="Path 929" d="M786.867,290.136V270.891q-.808.75-1.689,1.5-.812.7-1.686,1.392v16.348Z" transform="translate(-713.714 -196.59)" fill="none"/>
            <path id="Path_930" data-name="Path 930" d="M780.51,263.3l-.146.11-.147.11v.036l.147-.127Z" transform="translate(-714.814 -199.141)" fill="none"/>
            <path id="Path_931" data-name="Path 931" d="M783.592,275.376V262.222q-1.527,1.421-3.227,2.878l-.147.126v12.285l.147-.087Q782.068,276.416,783.592,275.376Z" transform="translate(-714.814 -199.503)" fill="none"/>
            <path id="Path_932" data-name="Path 932" d="M780.635,274.344l-.27.158-.147.086v.047l.147-.1Z" transform="translate(-714.814 -195.429)" fill="none"/>
            <path id="Path_933" data-name="Path 933" d="M789.629,270.46a.48.48,0,0,1,.386-.166V255.255c-.926,1.205-1.993,2.5-3.249,3.887v14.34A30.218,30.218,0,0,0,789.629,270.46Z" transform="translate(-712.613 -201.845)" fill="none"/>
            <path id="Path_934" data-name="Path 934" d="M786.867,273.126V258.974q-.808.856-1.689,1.744-.812.816-1.686,1.654v13.4q.876-.627,1.686-1.26Q786.064,273.819,786.867,273.126Z" transform="translate(-713.714 -200.595)" fill="none"/>
            <path id="Path_935" data-name="Path 935" d="M783.592,289.211V273.644q-1.527,1.172-3.227,2.331l-.147.1v13.135Z" transform="translate(-714.814 -195.665)" fill="none"/>
            <path id="Path_936" data-name="Path 936" d="M790.015,291.29V267.457a37.934,37.934,0,0,1-3.249,3.631v20.2Z" transform="translate(-712.613 -197.744)" fill="none"/>
            <path id="Path_937" data-name="Path 937" d="M777.045,277.275v-.648q-.83.391-1.687.774-.832.369-1.687.725v1.017q.858-.451,1.688-.91Q776.215,277.758,777.045,277.275Z" transform="translate(-717.015 -194.662)" fill="none"/>
            <path id="Path_938" data-name="Path 938" d="M777.045,278.53V267.685q-.83.621-1.687,1.241-.832.6-1.687,1.192v9.932q.858-.363,1.688-.737Q776.215,278.928,777.045,278.53Z" transform="translate(-717.015 -197.667)" fill="none"/>
            <path id="Path_939" data-name="Path 939" d="M755.837,286.256c.524-.124,1.047-.253,1.566-.382v-3.438c-.558.082-1.121.162-1.687.237s-1.122.144-1.687.21v3.374Z" transform="translate(-723.616 -192.71)" fill="none"/>
            <path id="Path_940" data-name="Path 940" d="M777.045,287.756v-9.783q-.83.475-1.687.943-.832.455-1.687.9v7.94Z" transform="translate(-717.015 -194.21)" fill="none"/>
            <path id="Path_941" data-name="Path 941" d="M773.771,269.421v-1.2q-.832.473-1.687.937-.832.451-1.687.894v1.6q.856-.541,1.688-1.09Q772.939,269.993,773.771,269.421Z" transform="translate(-718.115 -197.488)" fill="none"/>
            <path id="Path_942" data-name="Path 942" d="M780.318,275.112v-.162q-.824.459-1.686.907-.828.431-1.687.852v.538q.86-.517,1.688-1.039C779.206,275.845,779.768,275.478,780.318,275.112Z" transform="translate(-715.914 -195.226)" fill="none"/>
            <path id="Path_943" data-name="Path 943" d="M780.318,277.121V265.1q-.824.685-1.686,1.375-.828.661-1.687,1.32V278.91q.86-.427,1.688-.864Q779.493,277.586,780.318,277.121Z" transform="translate(-715.914 -198.536)" fill="none"/>
            <path id="Path_944" data-name="Path 944" d="M777.045,266.927v-.687q-.83.531-1.687,1.057-.83.507-1.687,1.009v1.085q.858-.6,1.688-1.208Q776.215,267.555,777.045,266.927Z" transform="translate(-717.015 -198.153)" fill="none"/>
            <path id="Path_945" data-name="Path 945" d="M780.318,264.17v-.159q-.824.6-1.686,1.192-.828.571-1.687,1.137v.565q.86-.667,1.688-1.339Q779.493,264.865,780.318,264.17Z" transform="translate(-715.914 -198.902)" fill="none"/>
            <path id="Path_946" data-name="Path 946" d="M780.318,288.431V275.964q-.824.543-1.686,1.078-.828.515-1.687,1.025v10.364Z" transform="translate(-715.914 -194.885)" fill="none"/>
            <path id="Path_947" data-name="Path 947" d="M820.352,284.369c.394-.119.783-.242,1.168-.366q.367-.12.728-.242c.147-.049.293-.1.438-.151v-5.875q-.577.351-1.166.7l-.478.278c-.228.132-.458.262-.689.391Z" transform="translate(-701.326 -194.29)" fill="none"/>
            <path id="Path_948" data-name="Path 948" d="M822.616,283.855q.591-.212,1.166-.434c.394-.151.784-.3,1.166-.461v-6.682c-.382.259-.772.518-1.166.775s-.772.5-1.166.744Z" transform="translate(-700.565 -194.779)" fill="none"/>
            <path id="Path_949" data-name="Path 949" d="M824.949,275.865v-.832c-.382.218-.772.434-1.166.648s-.772.413-1.166.617v1.1q.591-.375,1.166-.755C824.177,276.389,824.567,276.129,824.949,275.865Z" transform="translate(-700.565 -195.198)" fill="none"/>
            <path id="Path_950" data-name="Path 950" d="M822.616,283.748c.394-.183.783-.366,1.166-.555s.784-.386,1.166-.581v-.778c-.382.155-.772.307-1.166.456s-.772.29-1.166.429Z" transform="translate(-700.565 -192.912)" fill="none"/>
            <path id="Path_951" data-name="Path 951" d="M822.616,287.97h2.333V283c-.382.194-.772.385-1.166.575s-.772.367-1.166.548Z" transform="translate(-700.565 -192.522)" fill="none"/>
            <path id="Path_952" data-name="Path 952" d="M824.88,283.214q.591-.25,1.166-.509.593-.267,1.166-.541v-7.5c-.382.287-.772.573-1.166.859s-.772.55-1.166.824Z" transform="translate(-699.804 -195.322)" fill="none"/>
            <path id="Path_953" data-name="Path 953" d="M827.213,274.139v-.474c-.382.246-.772.489-1.166.731s-.772.468-1.166.7v.751q.591-.417,1.166-.838Q826.64,274.575,827.213,274.139Z" transform="translate(-699.804 -195.658)" fill="none"/>
            <path id="Path_954" data-name="Path 954" d="M822.686,277.429v-1.186q-.577.289-1.166.573l-.5.236q-.329.156-.664.3v1.456l.346-.2c.275-.16.55-.319.822-.481Q822.109,277.785,822.686,277.429Z" transform="translate(-701.326 -194.791)" fill="none"/>
            <path id="Path_955" data-name="Path 955" d="M820.352,287.61h2.334v-3.542l-.19.086q-.483.212-.977.422-.577.245-1.168.481Z" transform="translate(-701.326 -192.161)" fill="none"/>
            <path id="Path_956" data-name="Path 956" d="M818.089,287.293h2.334v-2.281c-.385.152-.775.3-1.168.445s-.774.285-1.166.422Z" transform="translate(-702.086 -191.844)" fill="none"/>
            <path id="Path_957" data-name="Path 957" d="M820.352,284.78q.591-.241,1.168-.486c.234-.1.468-.2.7-.3.158-.069.313-.138.468-.208v-1.1l-.218.075c-.312.107-.629.21-.948.313-.385.123-.774.245-1.168.362Z" transform="translate(-701.326 -192.628)" fill="none"/>
            <path id="Path_958" data-name="Path 958" d="M827.143,282.427c.4-.2.786-.4,1.168-.6s.787-.424,1.166-.637v-8.312c-.381.317-.771.633-1.166.951s-.772.609-1.168.911Z" transform="translate(-699.043 -195.922)" fill="none"/>
            <path id="Path_959" data-name="Path 959" d="M829.509,280.171l-.1.069v8.92H830.5v-9.705C830.167,279.693,829.856,279.935,829.509,280.171Z" transform="translate(-698.282 -193.712)" fill="none"/>
            <path id="Path_960" data-name="Path 960" d="M827.143,288.847h2.334v-8.459c-.381.251-.771.5-1.166.747s-.772.473-1.168.708Z" transform="translate(-699.043 -193.398)" fill="none"/>
            <path id="Path_961" data-name="Path 961" d="M753.205,282.861v3.255h.1v-3.264Z" transform="translate(-723.893 -192.57)" fill="none"/>
            <path id="Path_962" data-name="Path 962" d="M824.88,282.586q.591-.311,1.166-.628c.4-.219.784-.441,1.166-.661v-.45c-.382.18-.772.359-1.166.536s-.772.337-1.166.5Z" transform="translate(-699.804 -193.244)" fill="none"/>
            <path id="Path_963" data-name="Path 963" d="M818.089,285.693c.393-.14.782-.282,1.166-.428s.783-.3,1.168-.449v-1.424c-.385.112-.775.22-1.168.326s-.774.2-1.166.3Z" transform="translate(-702.086 -192.388)" fill="none"/>
            <path id="Path_964" data-name="Path 964" d="M824.88,288.38h2.333v-6.6c-.382.218-.772.437-1.166.652s-.772.417-1.166.621Z" transform="translate(-699.804 -192.931)" fill="none"/>
            <path id="Path_965" data-name="Path 965" d="M827.143,281.277q.6-.359,1.168-.719c.4-.251.787-.505,1.166-.759v-.111c-.381.211-.771.421-1.166.627s-.772.4-1.168.591Z" transform="translate(-699.043 -193.633)" fill="none"/>
            <path id="Path_966" data-name="Path 966" d="M829.477,272.234v-.11c-.381.275-.771.551-1.166.824s-.772.525-1.168.786v.391c.4-.309.786-.619,1.168-.926C828.708,272.876,829.1,272.554,829.477,272.234Z" transform="translate(-699.043 -196.175)" fill="none"/>
            <path id="Path_967" data-name="Path 967" d="M753.205,282.922l.1-.009v-3.224l-.1.032Z" transform="translate(-723.893 -193.633)" fill="none"/>
            <path id="Path_968" data-name="Path 968" d="M813.174,282.176c-.17.064-.342.124-.513.187v2.78c.171-.025.343-.048.513-.073Z" transform="translate(-703.91 -192.797)" fill="none"/>
            <path id="Path_969" data-name="Path 969" d="M813.391,285.056a.635.635,0,0,1,.076-.02q.79-.218,1.565-.454.693-.21,1.373-.437a.415.415,0,0,1,.061-.02q.806-.267,1.59-.552c.456-.164.9-.334,1.351-.508a.337.337,0,0,1,.072-.028q.812-.317,1.6-.649.677-.285,1.339-.583a.38.38,0,0,1,.067-.031c.277-.124.552-.249.824-.378s.532-.25.8-.378c.448-.215.888-.436,1.324-.657a.328.328,0,0,1,.064-.035q.834-.427,1.635-.868.663-.365,1.305-.736a.351.351,0,0,1,.068-.04c.562-.326,1.113-.659,1.651-.991.437-.273.868-.546,1.291-.822a.275.275,0,0,1,.067-.044q.858-.563,1.667-1.13c.434-.3.86-.611,1.275-.917a.367.367,0,0,1,.068-.051c.208-.154.413-.307.616-.461.35-.266.659-.529.993-.794V269.8l-23.468-8.335v23.785C812.9,285.184,813.15,285.123,813.391,285.056Z" transform="translate(-703.91 -199.759)" fill="none"/>
            <path id="Path_970" data-name="Path 970" d="M820.423,278.844v-1.535q-.577.253-1.168.5c-.385.16-.774.319-1.166.472v1.806c.393-.2.782-.4,1.166-.607S820.038,279.059,820.423,278.844Z" transform="translate(-702.086 -194.433)" fill="none"/>
            <path id="Path_971" data-name="Path 971" d="M813.174,284.864c-.17.024-.342.047-.513.072v2.406h.091c.14-.033.282-.067.422-.1Z" transform="translate(-703.91 -191.894)" fill="none"/>
            <path id="Path_972" data-name="Path 972" d="M813.174,279.7l-.513.131v2.631c.171-.063.343-.124.513-.19Z" transform="translate(-703.91 -193.629)" fill="none"/>
            <path id="Path_973" data-name="Path 973" d="M829.609,271.632l-.1.076-.1.075v.025l.1-.088Z" transform="translate(-698.282 -196.341)" fill="none"/>
            <path id="Path_974" data-name="Path 974" d="M753.305,279.966v-4.215l-.1.02V280Z" transform="translate(-723.893 -194.956)" fill="none"/>
            <path id="Path_975" data-name="Path 975" d="M830.5,271.714c-.334.3-.645.588-.993.886l-.1.085v8.495l.1-.059c.349-.207.66-.421.993-.631Z" transform="translate(-698.282 -196.313)" fill="none"/>
            <path id="Path_976" data-name="Path 976" d="M829.407,279.436v.034l.1-.071.188-.13-.188.109Z" transform="translate(-698.282 -193.774)" fill="none"/>
            <path id="Path_977" data-name="Path 977" d="M813.562,285.27c.393-.063.78-.128,1.166-.2s.782-.143,1.166-.216v-3.6c-.386.167-.774.33-1.166.492s-.774.313-1.166.466Z" transform="translate(-703.608 -193.104)" fill="none"/>
            <path id="Path_978" data-name="Path 978" d="M815.895,281.262v-2.23c-.386.126-.774.246-1.166.363s-.774.228-1.166.338v2.5c.393-.155.78-.311,1.166-.47S815.51,281.43,815.895,281.262Z" transform="translate(-703.608 -193.854)" fill="none"/>
            <path id="Path_979" data-name="Path 979" d="M815.825,287.014h2.334v-1.173c-.386.131-.774.259-1.167.386s-.774.246-1.168.366Z" transform="translate(-702.847 -191.565)" fill="none"/>
            <path id="Path_980" data-name="Path 980" d="M815.825,286.492c.394-.12.781-.243,1.168-.369s.78-.258,1.167-.39V283.99c-.386.091-.774.18-1.167.267s-.774.168-1.168.247Z" transform="translate(-702.847 -192.187)" fill="none"/>
            <path id="Path_981" data-name="Path 981" d="M818.089,284.771c.393-.1.782-.2,1.166-.307s.783-.216,1.168-.329v-5.089q-.577.319-1.168.627t-1.166.6Z" transform="translate(-702.086 -193.849)" fill="none"/>
            <path id="Path_982" data-name="Path 982" d="M818.159,280.12v-1.883c-.386.144-.774.289-1.167.429s-.774.274-1.168.4v2.151c.394-.176.781-.355,1.168-.537S817.773,280.312,818.159,280.12Z" transform="translate(-702.847 -194.121)" fill="none"/>
            <path id="Path_983" data-name="Path 983" d="M815.825,285.069c.394-.08.781-.164,1.168-.25s.78-.178,1.167-.271V280.22c-.386.188-.774.375-1.167.557s-.774.358-1.168.532Z" transform="translate(-702.847 -193.455)" fill="none"/>
            <path id="Path_984" data-name="Path 984" d="M813.562,287.192c.393-.1.78-.208,1.166-.317s.782-.222,1.166-.337v-2.06c-.386.073-.774.146-1.166.215s-.774.132-1.166.194Z" transform="translate(-703.608 -192.023)" fill="none"/>
            <path id="Path_985" data-name="Path 985" d="M815.5,286.559c-.247.072-.5.143-.751.214h.751Z" transform="translate(-703.21 -191.324)" fill="none"/>
            <path id="Path_986" data-name="Path 986" d="M880.711,269.425v-2.27l-.876-.738v-2.792a.267.267,0,0,0-.533,0v2.788l-.885.742v2.27l-.518.436v.231l-5.072-4.258v-4.1l-.623-.525v-2.727l-1.031-.866v-2.663a.332.332,0,0,0-.331-.331h-.031a.332.332,0,0,0-.331.331v2.663l-1.031.866v2.727l-.623.525v4.1l-5.072,4.258v-.231l-.518-.436v-2.27l-.883-.742v-2.788a.267.267,0,0,0-.533,0v2.792l-.878.738v2.27l-.518.436v2.595l-25.59-9.087v-23.06l-.852-.716v-3.729l-1.442-1.212v-4.585a.438.438,0,1,0-.875,0v4.577l-1.452,1.22v3.729l-.85.716v.381l-8.333-7v-6.73L820,226.1v-4.481l-1.7-1.424v-4.374a.543.543,0,0,0-.542-.542h-.052a.542.542,0,0,0-.542.542V220.2l-1.7,1.424V226.1l-1.023.859v6.73l-8.333,7v-.381l-.851-.716v-3.729l-1.451-1.22v-4.577a.439.439,0,0,0-.878,0v4.585l-1.442,1.212v3.729l-.85.716v22.926a.524.524,0,0,0-.422.182,56.785,56.785,0,0,1-4,4.37.625.625,0,0,0-.089.088q-.926.916-1.96,1.866-1.263,1.16-2.683,2.361a.529.529,0,0,0-.1.083c-1.152.967-2.374,1.949-3.669,2.933q-.479.365-.971.728a.565.565,0,0,0-.107.078q-.98.726-2.012,1.447-1.275.894-2.627,1.781a.585.585,0,0,0-.107.069q-1,.653-2.036,1.3-1.273.79-2.6,1.563a.65.65,0,0,0-.107.061q-1.014.587-2.06,1.164-1.265.7-2.577,1.371a.625.625,0,0,0-.1.051q-1.03.529-2.088,1.041c-.413.2-.833.4-1.253.6s-.863.4-1.3.6a.579.579,0,0,0-.106.047q-1.042.469-2.11.919-1.247.525-2.525,1.025a.556.556,0,0,0-.114.044q-1.054.411-2.131.8-1.238.449-2.505.87a.494.494,0,0,0-.1.033q-1.07.355-2.164.688-1.22.373-2.468.716a.551.551,0,0,0-.122.033q-1.08.3-2.179.57-1.219.3-2.457.576c-.031.005-.06.012-.09.02-.163.036-.33.067-.493.1V278.452l-.416-.347v-1.817l-.7-.591v-2.234a.213.213,0,0,0-.426,0v2.23l-.707.595V278.1l-.414.347v.187l-4.059-3.41v-3.277l-.5-.42V269.35l-.826-.693v-2.131a.265.265,0,0,0-.265-.266h-.025a.265.265,0,0,0-.265.266v2.131l-.826.693v2.182l-.5.42v3.277l-4.059,3.41v-.187l-.416-.347v-1.817l-.707-.595v-2.23a.213.213,0,0,0-.426,0V275.7l-.7.591V278.1l-.416.347v17.032a.508.508,0,0,0-.287.446.514.514,0,0,0,.287.428v6.655a.484.484,0,0,0,0,.884v.548a.478.478,0,0,0,0,.876v6.159a.51.51,0,0,0-.287.47.516.516,0,0,0,.287.409v2.317h12.9v.45h56.7v-.45h23.663v.45H881.23V269.861Zm-83.607-.552c1.37-1.514,2.535-2.925,3.545-4.238v16.4a.523.523,0,0,0-.422.18,32.76,32.76,0,0,1-3.122,3.295Zm3.545,13.539V308.4H797.1V286.373A41.824,41.824,0,0,0,800.649,282.412Zm-8.314-8.654q.954-.912,1.838-1.8.962-.966,1.841-1.9v15.432q-.876.755-1.841,1.51-.882.689-1.838,1.374Zm1.838,15.3q.962-.824,1.841-1.641V308.4h-3.68V290.575C792.969,290.069,793.584,289.561,794.173,289.056Zm-6.608-12.463.159-.119.159-.12-.159.139-.159.139Zm0,1.468.159-.138c1.235-1.055,2.409-2.106,3.519-3.138v14.343q-1.659,1.132-3.519,2.235l-.159.094Zm0,14.651.159-.093.3-.174-.3.207-.159.111Zm.159,1.256q1.852-1.261,3.519-2.543V308.4h-3.678V294.078Zm-4.929-14.038q.938-.617,1.838-1.24.94-.647,1.84-1.3v.174q-.9.76-1.84,1.523-.9.73-1.838,1.46Zm0,1.987q.938-.72,1.838-1.44.94-.75,1.84-1.5v13.108q-.9.509-1.84,1.007-.9.479-1.838.943Zm0,13.331q.938-.461,1.838-.93.94-.489,1.84-.99v.176q-.9.6-1.84,1.2-.9.569-1.838,1.133Zm1.838.734q.94-.583,1.84-1.176V308.4h-3.678V297.1C783.42,296.731,784.033,296.356,784.633,295.982Zm-6.608-13.09c.621-.365,1.236-.732,1.839-1.1.625-.382,1.237-.767,1.841-1.153v.748c-.6.458-1.216.915-1.841,1.371q-.9.661-1.839,1.317Zm0,2.505q.932-.647,1.839-1.3.936-.675,1.841-1.353V294.57c-.6.289-1.216.575-1.841.855q-.9.407-1.839.8Zm0,12.009q.932-.389,1.839-.791.936-.417,1.841-.844v.708c-.6.35-1.216.7-1.841,1.045q-.9.5-1.839.993Zm1.839,1.356q.936-.511,1.841-1.029V308.4h-3.68v-8.659Q778.957,299.259,779.864,298.763Zm-6.608-13.246c.62-.321,1.235-.647,1.839-.975.623-.335,1.236-.677,1.841-1.021v1.312c-.605.414-1.217.828-1.841,1.239q-.906.6-1.839,1.188Zm0,3.024c.62-.389,1.235-.78,1.839-1.174q.934-.605,1.841-1.221v10.538c-.605.247-1.217.489-1.841.728q-.906.347-1.839.685Zm0,10.71c.62-.222,1.235-.448,1.839-.676q.934-.353,1.841-.719v1.225c-.605.31-1.217.615-1.841.918q-.906.441-1.839.874Zm1.839,1.956q.934-.447,1.841-.906v8.1h-3.68V302.07C773.875,301.786,774.49,301.5,775.094,301.206Zm-6.608-13.377q.525-.238,1.045-.481.4-.186.794-.377.932-.443,1.841-.9v1.871q-.91.563-1.841,1.114c-.426.254-.859.508-1.293.758q-.273.158-.545.313Zm0,3.543q.545-.307,1.085-.619.379-.216.754-.438.932-.545,1.841-1.1v9.267c-.23.08-.46.159-.692.238-.38.128-.762.255-1.149.381q-.908.3-1.839.58Zm0,9.442q.93-.281,1.839-.572c.505-.163,1-.329,1.5-.5l.342-.116v1.74l-.738.327c-.365.162-.732.319-1.1.478q-.908.391-1.839.767Zm1.839,2.545c.52-.219,1.033-.442,1.543-.667l.3-.132v5.84h-3.68v-4.282Q769.415,303.744,770.324,303.36Zm-6.608-13.51q.928-.365,1.84-.746.93-.387,1.841-.787v2.421q-.912.507-1.841,1-.91.485-1.84.958Zm0,4.062q.928-.467,1.84-.946.93-.487,1.841-.987V300q-.912.267-1.841.52-.91.247-1.84.482Zm0,8.216c.619-.155,1.233-.313,1.84-.478s1.233-.337,1.841-.512v2.245q-.912.359-1.841.708-.91.343-1.84.673Zm1.84,3.125q.93-.345,1.841-.7V308.4h-3.681v-2.485C764.335,305.7,764.949,305.477,765.555,305.252Zm-6.61-13.664q.926-.313,1.84-.637t1.84-.68v2.971q-.91.453-1.84.891-.912.431-1.84.847Zm0,4.583q.926-.411,1.84-.838t1.84-.882v6.826q-.91.218-1.84.428-.912.2-1.84.393Zm0,7.037q.928-.188,1.84-.39c.619-.138,1.233-.278,1.84-.424v2.75q-.91.315-1.84.617-.912.3-1.84.584Zm1.84,3.7q.928-.3,1.84-.611V308.4h-3.68v-.919Q759.874,307.2,760.785,306.9Zm-2.929,1.5h-2.094l.252-.068q.928-.256,1.841-.526Zm-3.68-15.345c.616-.174,1.23-.353,1.838-.534s1.232-.378,1.841-.575v3.517q-.912.4-1.841.783c-.608.253-1.223.5-1.838.744Zm0,5.1c.616-.24,1.23-.485,1.838-.736s1.232-.509,1.841-.772v5.668q-.912.178-1.841.343c-.608.108-1.223.211-1.838.31Zm0,5.914c.616-.1,1.23-.2,1.838-.309s1.232-.222,1.841-.338v3.251q-.912.271-1.841.53c-.608.17-1.223.338-1.838.5Zm-4.77-9.812c.616-.139,1.231-.283,1.84-.432s1.231-.31,1.84-.472v4.058c-.609.231-1.223.46-1.84.68s-1.223.432-1.84.64Zm0,5.62q.924-.309,1.84-.633t1.84-.671v4.565q-.914.136-1.84.261c-.609.079-1.223.156-1.84.228Zm1.84,4.618q.926-.124,1.84-.259v3.749c-.565.142-1.136.281-1.708.417h-1.972v-3.68Q750.331,304.616,751.247,304.495Zm-3.04,3.907v-3.549l.11-.011V308.4Zm.11-4.652-.11.011v-3.491l.11-.035Zm0-9.252v4.6l-.11.035v-4.61Zm111.024,4.376-.111.065v-9.264l.111-.094c.379-.325.719-.643,1.082-.965v9.57C860.059,298.414,859.721,298.647,859.341,298.872Zm.2.75-.2.142-.111.078V299.8l.111-.064Zm-.315-10.936v-.027l.111-.081.109-.083-.109.095Zm1.193-5.92v4.008c-.365.289-.7.576-1.082.866q-.333.251-.671.5a.387.387,0,0,0-.076.053q-.677.5-1.39,1-.882.617-1.817,1.232a.306.306,0,0,0-.073.048q-.69.451-1.408.9c-.585.363-1.187.725-1.8,1.081a.339.339,0,0,0-.073.043q-.7.4-1.424.8-.874.481-1.784.949a.314.314,0,0,0-.07.036q-.713.365-1.444.719-.431.208-.867.411c-.3.14-.6.277-.9.413a.356.356,0,0,0-.072.033q-.721.323-1.459.635-.862.363-1.746.708a.311.311,0,0,0-.079.031q-.729.283-1.472.553-.858.311-1.734.6a.277.277,0,0,0-.067.021q-.743.246-1.5.477-.846.257-1.706.494a.463.463,0,0,0-.084.023c-.262.072-.529.139-.794.208V273.679Zm-25.59,21.295c.186-.067.374-.134.558-.2v3.156c-.184.028-.373.052-.558.079Zm0-.8v-2.869c.186-.048.374-.095.558-.144v2.806C835.207,303.125,835.018,303.192,834.833,303.261Zm0,7.215v-2.624l.558-.079v2.592l-.461.111Zm2.584-7.415c.427-.176.851-.353,1.272-.536v3.92c-.419.082-.844.16-1.272.236s-.844.146-1.272.215V303.57Q836.786,303.319,837.417,303.061Zm-1.272-.3v-2.722q.641-.178,1.272-.369t1.272-.4v2.432q-.629.275-1.272.542T836.145,302.763Zm1.272,4.683q.641-.114,1.272-.235v2.246c-.419.126-.844.249-1.272.367s-.844.234-1.272.346v-2.513C836.572,307.589,837,307.519,837.417,307.446Zm1.272,2.8v.234h-.819C838.144,310.4,838.419,310.323,838.689,310.242Zm2.027-8.627q.641-.3,1.272-.608v4.719c-.421.1-.844.2-1.272.3s-.844.186-1.273.273v-4.1Q840.086,301.911,840.716,301.615Zm-1.273-.242v-2.346q.643-.214,1.273-.441t1.272-.469v2.054q-.631.315-1.272.616T839.442,301.373Zm1.273,5.418q.641-.142,1.272-.291v1.9q-.631.216-1.272.426t-1.273.4v-2.168C839.871,306.976,840.295,306.885,840.716,306.791Zm0,2.826q.641-.206,1.272-.421v1.28h-2.545v-.46Q840.086,309.82,840.716,309.617Zm3.3-9.637q.641-.337,1.273-.683v5.549q-.631.184-1.273.358t-1.272.335v-4.9Q843.383,300.312,844.013,299.98Zm-1.272-.187v-1.968q.641-.253,1.272-.516t1.273-.544v1.675q-.631.351-1.273.691C843.594,299.356,843.169,299.575,842.741,299.793Zm1.272,6.191q.641-.172,1.273-.355v1.553q-.631.249-1.273.49t-1.272.465v-1.821Q843.383,306.153,844.013,305.984Zm0,2.49q.641-.239,1.273-.485v2.486h-2.545v-1.542Q843.383,308.708,844.013,308.475Zm2.776-10.022.521-.3c.429-.251.852-.506,1.273-.762v6.407c-.159.056-.318.109-.48.164q-.393.132-.794.263c-.42.136-.844.27-1.272.4v-5.743C846.29,298.737,846.541,298.6,846.789,298.453Zm-.751-.437v-1.587c.242-.108.484-.219.723-.333l.549-.258q.643-.309,1.273-.625v1.295c-.421.258-.844.516-1.273.77-.3.176-.6.35-.9.525Zm1.272,7q.523-.168,1.036-.342l.238-.08v1.2l-.51.227c-.252.111-.508.222-.763.331q-.629.271-1.272.532v-1.474C846.466,305.279,846.891,305.145,847.311,305.012Zm0,2.155c.359-.152.713-.3,1.066-.46l.207-.094v3.863h-2.545v-2.784Q846.68,307.433,847.311,307.167Zm3.3-11.057c.43-.279.855-.562,1.272-.846v7.287q-.625.255-1.272.5-.627.241-1.272.473V296.92Q849.981,296.518,850.608,296.109Zm-1.272-.075v-1.2q.645-.335,1.272-.673.645-.351,1.272-.707v.907q-.625.429-1.272.854Q849.981,295.626,849.336,296.034Zm1.272,7.823c.43-.162.855-.329,1.272-.5v.848c-.417.212-.842.425-1.272.633s-.842.406-1.272.6v-1.121Q849.981,304.1,850.608,303.857Zm0,1.821q.645-.311,1.272-.627v5.424h-2.544v-4.2C849.766,306.079,850.19,305.879,850.608,305.678Zm3.3-11.83q.647-.467,1.273-.935v8.177q-.625.3-1.273.591-.625.281-1.272.556v-7.489Q853.281,294.3,853.906,293.849Zm-1.272-.015v-.819q.647-.377,1.272-.76c.432-.263.856-.53,1.273-.8v.517q-.625.473-1.273.947Q853.28,293.38,852.634,293.834Zm1.272,8.67q.647-.289,1.273-.584v.49c-.417.24-.84.482-1.273.72-.417.232-.84.46-1.272.687v-.766Q853.281,302.781,853.906,302.5Zm0,1.484q.647-.353,1.273-.712v7.2h-2.545v-5.811Q853.281,304.331,853.906,303.988Zm3.3-12.642q.647-.519,1.272-1.037v9.063q-.621.351-1.272.7c-.417.222-.84.438-1.273.655V292.34C856.364,292.01,856.787,291.677,857.2,291.346Zm-1.273.049v-.428q.649-.427,1.273-.858c.432-.3.856-.6,1.272-.9v.119q-.621.525-1.272,1.053Q856.579,290.889,855.931,291.4Zm1.273,9.521q.647-.339,1.272-.685v.122q-.621.417-1.272.828-.625.393-1.273.783v-.4Q856.58,301.241,857.2,300.917Zm0,1.149q.647-.4,1.272-.814v9.224h-2.545v-7.638Q856.58,302.455,857.2,302.066Zm2.026,8.411v-9.728l.111-.075c.379-.258.719-.521,1.082-.78v10.583Z" transform="translate(-731.266 -215.28)" fill="#0070e8"/>
          </g>
        </g>
      </g>
    </g>
  </g>
</svg>
