<svg xmlns="http://www.w3.org/2000/svg" width="32.424" height="32.424" viewBox="0 0 32.424 32.424">
  <path id="icon1" d="M28.042,8.014l-.663.663a2.868,2.868,0,0,1-4.056-4.056l.663-.663L20.029,0,0,20.029l3.958,3.958.663-.663a2.868,2.868,0,0,1,4.056,4.056l-.663.663L11.971,32,32,11.971ZM10.6,27.977A4.745,4.745,0,0,0,4.023,21.4L2.652,20.029,20.029,2.652,21.4,4.023A4.745,4.745,0,0,0,27.977,10.6l1.371,1.371L11.971,29.348Z" transform="translate(0.212 0.212)" fill="#fff" stroke="#fff" stroke-width="0.3"/>
</svg>
