<svg xmlns="http://www.w3.org/2000/svg" width="24" height="24" viewBox="0 0 24 24">
  <g id="instagram-b" transform="translate(0.001)">
    <path id="Path_987" data-name="Path 987" d="M17.5,0H6.5A6.5,6.5,0,0,0,0,6.5V17.5A6.5,6.5,0,0,0,6.5,24H17.5A6.5,6.5,0,0,0,24,17.5V6.5A6.5,6.5,0,0,0,17.5,0Zm5.09,17.5a5.1,5.1,0,0,1-5.09,5.089H6.5A5.1,5.1,0,0,1,1.406,17.5V6.5A5.1,5.1,0,0,1,6.5,1.407H17.5A5.1,5.1,0,0,1,22.592,6.5Zm0,0" fill="#181818"/>
    <path id="Path_988" data-name="Path 988" d="M122.566,116a6.562,6.562,0,1,0,6.562,6.562A6.57,6.57,0,0,0,122.566,116Zm0,11.718a5.155,5.155,0,1,1,5.155-5.155A5.161,5.161,0,0,1,122.566,127.722Zm0,0" transform="translate(-110.567 -110.566)" fill="#181818"/>
    <path id="Path_989" data-name="Path 989" d="M359.916,66.285a1.939,1.939,0,1,0,1.939,1.939A1.941,1.941,0,0,0,359.916,66.285Zm0,2.471a.532.532,0,1,1,.532-.532A.533.533,0,0,1,359.916,68.756Zm0,0" transform="translate(-341.198 -63.178)" fill="#181818"/>
  </g>
</svg>
