<svg xmlns="http://www.w3.org/2000/svg" width="24" height="24" viewBox="0 0 24 24">
  <g id="instagram" transform="translate(0.001)">
    <path id="Path_431" data-name="Path 431" d="M17.5,0H6.5A6.5,6.5,0,0,0,0,6.5V17.5A6.5,6.5,0,0,0,6.5,24H17.5A6.5,6.5,0,0,0,24,17.5V6.5A6.5,6.5,0,0,0,17.5,0ZM12,18.562A6.562,6.562,0,1,1,18.561,12,6.57,6.57,0,0,1,12,18.562ZM18.718,6.985a1.939,1.939,0,1,1,1.939-1.939A1.941,1.941,0,0,1,18.718,6.985Zm0,0" fill="#0a6fe5"/>
    <path id="Path_432" data-name="Path 432" d="M151.175,146.02a5.155,5.155,0,1,0,5.155,5.155A5.161,5.161,0,0,0,151.175,146.02Zm0,0" transform="translate(-139.176 -139.175)" fill="#0a6fe5"/>
    <path id="Path_433" data-name="Path 433" d="M388.525,96.3a.532.532,0,1,0,.532.532A.533.533,0,0,0,388.525,96.3Zm0,0" transform="translate(-369.806 -91.787)" fill="#0a6fe5"/>
  </g>
</svg>
