<svg xmlns="http://www.w3.org/2000/svg" width="24.5" height="24.5" viewBox="0 0 24.5 24.5">
  <g id="linkedin-b" transform="translate(1.25 -4.017)">
    <g id="Group_1368" data-name="Group 1368" transform="translate(-1 4.267)">
      <g id="Group_1367" data-name="Group 1367" transform="translate(0 0)">
        <path id="Path_997" data-name="Path 997" d="M2.24,4.267A3.144,3.144,0,0,0-.04,5.2,3.262,3.262,0,0,0-1,7.521,3.289,3.289,0,0,0-.04,9.84a3.025,3.025,0,0,0,2.24.936h.08A3.008,3.008,0,0,0,4.44,9.84,3.289,3.289,0,0,0,5.4,7.521a3.066,3.066,0,0,0-.92-2.278A3,3,0,0,0,2.24,4.267Zm1.64,5a2.185,2.185,0,0,1-1.68.692A2.407,2.407,0,0,1,.52,9.27,2.386,2.386,0,0,1-.2,7.521,2.452,2.452,0,0,1,.52,5.772a2.363,2.363,0,0,1,1.72-.692,2.314,2.314,0,0,1,1.64.692A2.452,2.452,0,0,1,4.6,7.521,2.386,2.386,0,0,1,3.88,9.27Z" transform="translate(1 -4.267)" fill="#181818" stroke="#181818" stroke-width="0.5"/>
        <path id="Path_998" data-name="Path 998" d="M11.933,157.867H8.693a1.181,1.181,0,0,0-1.16,1.22v14.237a1.241,1.241,0,0,0,1.2,1.22h3.2a1.234,1.234,0,0,0,1.2-1.18V159.087A1.241,1.241,0,0,0,11.933,157.867Zm.4,15.5a.4.4,0,0,1-.4.366h-3.2a.434.434,0,0,1-.4-.407V159.087a.4.4,0,0,1,.36-.407h3.24a.434.434,0,0,1,.4.407Z" transform="translate(-7.133 -150.545)" fill="#181818" stroke="#181818" stroke-width="0.5"/>
        <path id="Path_999" data-name="Path 999" d="M179.253,149.333h-.84a5.363,5.363,0,0,0-4,1.79v-.57a.868.868,0,0,0-.8-.814h-4a.828.828,0,0,0-.8.773v15.173a.791.791,0,0,0,.8.732h4.4a.791.791,0,0,0,.8-.732V156.9a2.28,2.28,0,0,1,2.2-2.4,2.338,2.338,0,0,1,1.68.692,2.158,2.158,0,0,1,.56,1.668V165.6a.868.868,0,0,0,.8.814h4a.868.868,0,0,0,.8-.814V155.109A5.608,5.608,0,0,0,179.253,149.333Zm4.8,16.23-.04.041h-3.92l-.04-8.746a3.026,3.026,0,0,0-.76-2.237,3.047,3.047,0,0,0-5.24,2.278V165.6h-4.4V150.553h3.96l.04.041v2.563l1.08-1.1.04-.041a4.54,4.54,0,0,1,3.68-1.871h.84a4.816,4.816,0,0,1,4.76,4.963Z" transform="translate(-160.853 -142.418)" fill="#181818" stroke="#181818" stroke-width="0.5"/>
      </g>
    </g>
  </g>
</svg>
