<svg xmlns="http://www.w3.org/2000/svg" xmlns:xlink="http://www.w3.org/1999/xlink" width="102" height="44" viewBox="0 0 102 44">
  <defs>
    <linearGradient id="linear-gradient" x1="0.491" y1="0.837" x2="0.512" y2="0.03" gradientUnits="objectBoundingBox">
      <stop offset="0.214" stop-color="#0a6fe5"/>
      <stop offset="0.812" stop-color="#6d428f"/>
    </linearGradient>
  </defs>
  <g id="LOGO_FLYOUT" data-name="LOGO FLYOUT" transform="translate(0 0)">
    <g id="Group_1029" data-name="Group 1029" transform="translate(0 21.534)">
      <path id="Path_163" data-name="Path 163" d="M1.705,44.431l-.009.007A5.961,5.961,0,0,0,0,48.953V60.664H3.322V53.482H9.951V50.466H3.322V49.21a3.652,3.652,0,0,1,.76-2.566,3.208,3.208,0,0,1,2.332-.736H9.951V42.892H6.393A6.73,6.73,0,0,0,1.705,44.431Z" transform="translate(0 -42.892)" fill="#0a6fe5"/>
      <path id="Path_164" data-name="Path 164" d="M34.372,57.6h0a2.608,2.608,0,0,1-1.462-.579A4.071,4.071,0,0,1,32,53.941V42.892H28.677v11.5a10.585,10.585,0,0,0,.181,2.06,5.07,5.07,0,0,0,1.374,2.73,6.339,6.339,0,0,0,4.562,1.479h3.661V57.647H35.6A11.116,11.116,0,0,1,34.372,57.6Z" transform="translate(-14.23 -42.892)" fill="#0a6fe5"/>
      <path id="Path_165" data-name="Path 165" d="M59.856,42.892v5.117a3.61,3.61,0,0,1-.472,2.092,2.481,2.481,0,0,1-2.152,1,2.6,2.6,0,0,1-2.126-.884,3.7,3.7,0,0,1-.585-2.357v-4.97H51.2v4.933c-.084,3.429,1.393,5.56,4.279,6.189v6.65H58.8V54.02a7.491,7.491,0,0,0,.931-.223,4.858,4.858,0,0,0,1.931-1.208,6.218,6.218,0,0,0,1.516-4.383V42.892Z" transform="translate(-25.404 -42.892)" fill="#0a6fe5"/>
    </g>
    <path id="Path_166" data-name="Path 166" d="M108.445,47.9a9.307,9.307,0,0,0-2.026-3.021,9.207,9.207,0,0,0-2.935-1.953,9.34,9.34,0,0,0-7.776.324,9.226,9.226,0,0,0-2.287,14.733,8.94,8.94,0,0,0,6.524,2.684,8.822,8.822,0,0,0,6.542-2.739,9.441,9.441,0,0,0,1.97-3.01,9,9,0,0,0-.013-7.018Zm-8.487,9.64a5.471,5.471,0,0,1-4.106-1.757,5.961,5.961,0,0,1-1.74-4.352,5.881,5.881,0,0,1,1.759-4.358,5.672,5.672,0,0,1,8.109-.016,6.2,6.2,0,0,1,1.305,2.011,6.171,6.171,0,0,1,.011,4.7,6.149,6.149,0,0,1-1.285,2.007A5.328,5.328,0,0,1,99.957,57.535Z" transform="translate(-45.008 -21.026)" fill="#0a6fe5"/>
    <g id="Group_1030" data-name="Group 1030" transform="translate(73.212 21.534)">
      <path id="Path_167" data-name="Path 167" d="M154.61,53.769a10.622,10.622,0,0,1-.079,1.457,3.455,3.455,0,0,1-.464,1.292,2.672,2.672,0,0,1-2.414,1.349,2.786,2.786,0,0,1-2.2-.946A4.325,4.325,0,0,1,148.647,54V42.892h-3.322V54.271a9.364,9.364,0,0,0,.212,2.162,5.632,5.632,0,0,0,1.252,2.414,6.134,6.134,0,0,0,4.8,2.147,6.342,6.342,0,0,0,3.454-.943A5.987,5.987,0,0,0,157.5,57a8.945,8.945,0,0,0,.428-3.083V42.892H154.61Z" transform="translate(-145.325 -42.892)" fill="#0a6fe5"/>
      <path id="Path_168" data-name="Path 168" d="M179.005,42.892v3.016h4.267V60.664h3.322V45.908h4.231V42.892Z" transform="translate(-162.038 -42.892)" fill="#0a6fe5"/>
    </g>
    <path id="Path_169" data-name="Path 169" d="M109.938,6.879a2.269,2.269,0,0,1-.565-.751v0c-.017-1.114-.058-2.191-.138-3.123-.151-1.763-.571-3.008-1-3.009h0c-.427,0-.853,1.243-1.014,3-.085.932-.131,2.009-.154,3.122v0a2.27,2.27,0,0,1-.569.748l-7.76,6.115.14.806,8.192-3.866v0c.024,1.432.066,2.7.1,3.552,0,0,.06,12.95,0,17.266a11.55,11.55,0,1,1-6.131-10.518c-2.414-2.653-6.844-4.386-12.341-1.466a13.1,13.1,0,0,0-6.661,11.66,13.59,13.59,0,0,0,27.17.5l.035-17.476c.034-.851.082-2.1.112-3.509l8.172,3.907.144-.8Z" transform="translate(-40.707 0)" fill="url(#linear-gradient)"/>
  </g>
</svg>
