<svg xmlns="http://www.w3.org/2000/svg" width="40" height="40" viewBox="0 0 40 40">
  <g id="messenger" transform="translate(-0.025 0)">
    <path id="Path_205" data-name="Path 205" d="M20.025,0a19.617,19.617,0,0,0-20,19.165A18.8,18.8,0,0,0,6.692,33.434v5.733a.833.833,0,0,0,1.275.707l4.645-2.9a20.638,20.638,0,0,0,7.413,1.362,19.617,19.617,0,0,0,20-19.165A19.617,19.617,0,0,0,20.025,0Z" transform="translate(0 0)" fill="#fff"/>
    <path id="Path_206" data-name="Path 206" d="M111.871,171.029a.833.833,0,0,0-1.067-.233l-8.667,4.725L96.746,170.9a.833.833,0,0,0-1.132.043l-10,10a.833.833,0,0,0,.988,1.32l8.667-4.725,5.4,4.625a.833.833,0,0,0,1.132-.043l10-10A.833.833,0,0,0,111.871,171.029Z" transform="translate(-78.68 -157.36)" fill="#0a6fe5"/>
  </g>
</svg>
