<svg xmlns="http://www.w3.org/2000/svg" width="24.6" height="32.6" viewBox="0 0 24.6 32.6">
  <g id="passport" transform="translate(-63.701 0.3)">
    <g id="Group_1088" data-name="Group 1088" transform="translate(64.001 0)">
      <g id="Group_1087" data-name="Group 1087" transform="translate(0 0)">
        <path id="Path_208" data-name="Path 208" d="M150.211,384.567l-13.335,0a.667.667,0,1,0,0,1.333l13.335,0a.667.667,0,0,0,0-1.333Z" transform="translate(-131.696 -360.53)" fill="#fff" stroke="#fff" stroke-width="0.6"/>
        <path id="Path_209" data-name="Path 209" d="M187.543,427.263h-8a.667.667,0,0,0,0,1.333h8a.667.667,0,1,0,0-1.333Z" transform="translate(-171.696 -400.559)" fill="#fff" stroke="#fff" stroke-width="0.6"/>
        <path id="Path_210" data-name="Path 210" d="M146,128a7.333,7.333,0,1,0,7.333,7.333A7.342,7.342,0,0,0,146,128Zm-5.933,8h2.613a12.4,12.4,0,0,0,1.1,4.9A5.987,5.987,0,0,1,140.069,136Zm2.613-1.333h-2.613a5.987,5.987,0,0,1,3.713-4.9A12.4,12.4,0,0,0,142.682,134.669Zm3.32,6.667c-.764,0-1.838-2.065-1.973-5.333h3.947C147.839,139.27,146.765,141.335,146,141.335Zm-1.973-6.667c.135-3.268,1.21-5.333,1.973-5.333s1.838,2.065,1.973,5.333Zm4.193,6.23a12.4,12.4,0,0,0,1.1-4.9h2.613A5.987,5.987,0,0,1,148.221,140.9Zm1.1-6.23a12.4,12.4,0,0,0-1.1-4.9,5.987,5.987,0,0,1,3.713,4.9Z" transform="translate(-134.001 -120.002)" fill="#fff" stroke="#fff" stroke-width="0.6"/>
        <path id="Path_211" data-name="Path 211" d="M85.334,4H84V2.622A2.655,2.655,0,0,0,81.334,0a2.424,2.424,0,0,0-.6.084L66.525,4.014A2.663,2.663,0,0,0,64,6.667V29.333A2.669,2.669,0,0,0,66.668,32H85.334A2.669,2.669,0,0,0,88,29.333V6.667A2.669,2.669,0,0,0,85.334,4ZM81.081,1.372a1.3,1.3,0,0,1,1.587,1.25V4H71.58Zm5.587,27.961a1.335,1.335,0,0,1-1.333,1.333H66.668a1.335,1.335,0,0,1-1.333-1.333V6.667a1.335,1.335,0,0,1,1.333-1.333H85.334a1.335,1.335,0,0,1,1.333,1.333Z" transform="translate(-64.001 0)" fill="#fff" stroke="#fff" stroke-width="0.6"/>
      </g>
    </g>
  </g>
</svg>
