<svg xmlns="http://www.w3.org/2000/svg" width="14" height="16" viewBox="0 0 14 16">
  <g id="share" transform="translate(0 0)">
    <path id="Path_155" data-name="Path 155" d="M318.8,18.167A2.07,2.07,0,1,1,316.736,16,2.119,2.119,0,0,1,318.8,18.167Zm0,0" transform="translate(-305.282 -15.5)" fill="#58616d"/>
    <path id="Path_156" data-name="Path 156" d="M301.213,5.333a2.611,2.611,0,0,1-2.545-2.667,2.548,2.548,0,1,1,5.091,0A2.611,2.611,0,0,1,301.213,5.333Zm0-4.333a1.632,1.632,0,0,0-1.591,1.667,1.593,1.593,0,1,0,3.182,0A1.632,1.632,0,0,0,301.213,1Zm0,0" transform="translate(-289.759)" fill="#58616d"/>
    <path id="Path_157" data-name="Path 157" d="M318.8,359.5a2.07,2.07,0,1,1-2.068-2.167A2.119,2.119,0,0,1,318.8,359.5Zm0,0" transform="translate(-305.282 -346.165)" fill="#58616d"/>
    <path id="Path_158" data-name="Path 158" d="M301.213,346.665A2.67,2.67,0,1,1,303.759,344,2.611,2.611,0,0,1,301.213,346.665Zm0-4.333A1.668,1.668,0,1,0,302.8,344,1.632,1.632,0,0,0,301.213,342.332Zm0,0" transform="translate(-289.759 -330.665)" fill="#58616d"/>
    <path id="Path_159" data-name="Path 159" d="M20.137,188.835a2.07,2.07,0,1,1-2.068-2.167A2.119,2.119,0,0,1,20.137,188.835Zm0,0" transform="translate(-15.523 -180.835)" fill="#58616d"/>
    <path id="Path_160" data-name="Path 160" d="M2.545,176a2.67,2.67,0,0,1,0-5.333,2.67,2.67,0,0,1,0,5.333Zm0-4.333a1.668,1.668,0,0,0,0,3.333,1.668,1.668,0,0,0,0-3.333Zm0,0" transform="translate(0 -165.335)" fill="#58616d"/>
    <path id="Path_161" data-name="Path 161" d="M114.985,95.075a.631.631,0,0,1-.554-.337.685.685,0,0,1,.238-.909l5.9-3.527a.62.62,0,0,1,.868.249.685.685,0,0,1-.238.909l-5.9,3.527A.61.61,0,0,1,114.985,95.075Zm0,0" transform="translate(-110.937 -87.395)" fill="#58616d"/>
    <path id="Path_162" data-name="Path 162" d="M120.912,271.079a.61.61,0,0,1-.314-.087l-5.9-3.527a.685.685,0,0,1-.238-.909.62.62,0,0,1,.868-.249l5.9,3.527a.685.685,0,0,1,.238.909A.632.632,0,0,1,120.912,271.079Zm0,0" transform="translate(-110.96 -257.899)" fill="#58616d"/>
  </g>
</svg>
