<svg xmlns="http://www.w3.org/2000/svg" width="22.5" height="24.5" viewBox="0 0 22.5 24.5">
  <g id="viber-b" transform="translate(-2.005 0.25)">
    <g id="Group_1365" data-name="Group 1365" transform="translate(2.255)">
      <path id="Path_990" data-name="Path 990" d="M15.547,0H10.963A8.7,8.7,0,0,0,2.255,8.682V12.8a8.7,8.7,0,0,0,5.5,8.074v2.67a.458.458,0,0,0,.766.339l2.658-2.4h4.368A8.7,8.7,0,0,0,24.255,12.8V8.682A8.7,8.7,0,0,0,15.547,0Zm7.791,12.8a7.788,7.788,0,0,1-7.791,7.768H11a.458.458,0,0,0-.308.118L8.672,22.512V20.557a.456.456,0,0,0-.306-.431A7.785,7.785,0,0,1,3.172,12.8V8.682A7.788,7.788,0,0,1,10.963.914h4.584a7.788,7.788,0,0,1,7.791,7.768Z" transform="translate(-2.255)" fill="#181818" stroke="#181818" stroke-width="0.5"/>
      <path id="Path_991" data-name="Path 991" d="M24.413,19.366,21.6,17.542a1.374,1.374,0,0,0-1.9.4l-.132.2a4.562,4.562,0,0,1-3.368-3.238l.333-.289h0a1.371,1.371,0,0,0,.135-1.935l-2.2-2.528a.46.46,0,0,0-.647-.045l-1.384,1.2a2.718,2.718,0,0,0-.46,3.12A.454.454,0,0,0,12,14.5a20.888,20.888,0,0,0,3.053,4.016A25.187,25.187,0,0,0,20.38,22.2a2.3,2.3,0,0,0,3.17-.672l1-1.533A.458.458,0,0,0,24.413,19.366ZM22.78,21.034a1.392,1.392,0,0,1-1.94.381A24.951,24.951,0,0,1,15.7,17.873a20.406,20.406,0,0,1-2.888-3.789c-.363-1.015-.3-1.639.213-2.082l1.038-.9,1.9,2.183a.451.451,0,0,1-.044.645l-.562.487a.456.456,0,0,0-.137.479,5.57,5.57,0,0,0,4.185,4.163l.2.065a.457.457,0,0,0,.529-.184l.325-.5a.456.456,0,0,1,.634-.133l2.433,1.575Z" transform="translate(-7.355 -5.43)" fill="#181818" stroke="#181818" stroke-width="0.5"/>
      <path id="Path_992" data-name="Path 992" d="M27.848,16.226a.457.457,0,1,0-.251.879,2.071,2.071,0,0,1,1.419,1.419.459.459,0,0,0,.441.333.471.471,0,0,0,.125-.017.457.457,0,0,0,.317-.564A2.992,2.992,0,0,0,27.848,16.226Z" transform="translate(-15.801 -8.8)" fill="#181818" stroke="#181818" stroke-width="0.5"/>
      <path id="Path_993" data-name="Path 993" d="M31.273,16.779a.471.471,0,0,0,.125-.017.457.457,0,0,0,.317-.564,5.812,5.812,0,0,0-3.982-3.98.457.457,0,1,0-.251.879,4.89,4.89,0,0,1,3.351,3.349A.459.459,0,0,0,31.273,16.779Z" transform="translate(-15.739 -6.624)" fill="#181818" stroke="#181818" stroke-width="0.5"/>
      <path id="Path_994" data-name="Path 994" d="M27.3,7.561a.457.457,0,1,0-.251.879,8.286,8.286,0,0,1,5.678,5.675.459.459,0,0,0,.441.333.471.471,0,0,0,.125-.017.457.457,0,0,0,.317-.564A9.208,9.208,0,0,0,27.3,7.561Z" transform="translate(-15.505 -4.095)" fill="#181818" stroke="#181818" stroke-width="0.5"/>
    </g>
  </g>
</svg>
