<svg xmlns="http://www.w3.org/2000/svg" width="20" height="20" viewBox="0 0 20 20">
  <path id="virus" d="M18.75,8.75a1.25,1.25,0,0,0-1.082.625H16.533a6.53,6.53,0,0,0-1.474-3.55l.805-.805a1.25,1.25,0,1,0-.884-.884l-.805.805a6.53,6.53,0,0,0-3.55-1.474V2.332a1.25,1.25,0,1,0-1.25,0V3.467a6.53,6.53,0,0,0-3.55,1.474L5.02,4.136a1.25,1.25,0,1,0-.884.884l.805.805a6.53,6.53,0,0,0-1.474,3.55H2.332a1.25,1.25,0,1,0,0,1.25H3.467a6.53,6.53,0,0,0,1.474,3.55l-.805.805a1.25,1.25,0,1,0,.884.884l.805-.805a6.53,6.53,0,0,0,3.55,1.474v1.135a1.25,1.25,0,1,0,1.25,0V16.533a6.53,6.53,0,0,0,3.55-1.474l.805.805a1.25,1.25,0,1,0,.884-.884l-.805-.805a6.53,6.53,0,0,0,1.474-3.55h1.135A1.25,1.25,0,1,0,18.75,8.75ZM7.93,9.687A1.094,1.094,0,1,1,9.023,8.594,1.095,1.095,0,0,1,7.93,9.687Zm2.7,3.75a1.25,1.25,0,1,1,1.25-1.25A1.251,1.251,0,0,1,10.625,13.437Zm2.188-4.375a.938.938,0,1,1,.938-.937A.939.939,0,0,1,12.812,9.062Z" fill="#ef7417"/>
</svg>
