<svg xmlns="http://www.w3.org/2000/svg" width="24.45" height="24.45" viewBox="0 0 24.45 24.45">
  <g id="whatsapp-b" transform="translate(0.225 0.225)">
    <g id="Group_1366" data-name="Group 1366">
      <path id="Path_995" data-name="Path 995" d="M12,0A12,12,0,0,0,1.817,18.352c-.474,1.661-1.33,4.8-1.339,4.835a.462.462,0,0,0,.581.562l4.757-1.463A12,12,0,1,0,12,0Zm0,23.077a11.049,11.049,0,0,1-5.876-1.685.462.462,0,0,0-.245-.07.469.469,0,0,0-.136.02L1.59,22.62c.305-1.114.853-3.106,1.171-4.214a.463.463,0,0,0-.056-.379A11.078,11.078,0,1,1,12,23.077Z" fill="#181818" stroke="#181818" stroke-width="0.45"/>
      <path id="Path_996" data-name="Path 996" d="M24.868,20.091c-.852-.473-1.578-.948-2.107-1.294-.4-.264-.7-.455-.911-.562a1.049,1.049,0,0,0-1.225.087.461.461,0,0,0-.058.07A6.488,6.488,0,0,1,18.9,20.265a11.113,11.113,0,0,1-2.838-1.837,6.145,6.145,0,0,1-2.245-2.837c.837-.861,1.138-1.4,1.138-2.02A13.061,13.061,0,0,0,13.2,10.014c-.269-.269-.875-.311-1.8-.126a.466.466,0,0,0-.236.126c-.112.112-2.736,2.788-1.489,6.03,1.369,3.559,4.883,7.7,9.362,8.368a9.708,9.708,0,0,0,1.433.114A4.249,4.249,0,0,0,25.1,20.57.46.46,0,0,0,24.868,20.091ZM19.174,23.5c-4.737-.71-7.721-5.4-8.638-7.786-.909-2.363.768-4.47,1.188-4.946a3.481,3.481,0,0,1,.853-.059,16.576,16.576,0,0,1,1.451,2.863c0,.242-.079.58-1.019,1.52a.46.46,0,0,0-.135.326c0,2.417,5.1,5.769,6,5.769.785,0,1.809-1.32,2.392-2.179a.438.438,0,0,1,.171.054c.166.084.454.271.818.51.481.314,1.12.732,1.874,1.164C23.788,22.382,22.83,24.049,19.174,23.5Z" transform="translate(-5.029 -5.264)" fill="#181818" stroke="#181818" stroke-width="0.45"/>
    </g>
  </g>
</svg>
