<svg xmlns="http://www.w3.org/2000/svg" width="24" height="24" viewBox="0 0 24 24">
  <g id="XMLID_7_" transform="translate(-4.219)">
    <path id="XMLID_8_" d="M173.886,48.1c.03-3.384-2.93-6.486-6.6-6.915-.073-.008-.152-.021-.237-.035a3.518,3.518,0,0,0-.559-.059,1.013,1.013,0,0,0-.86,1.565,1.463,1.463,0,0,0,1.039.435c.1.014.2.027.282.045,3.295.717,4.4,1.844,4.947,5.025.013.078.019.174.026.275.024.38.073,1.171.946,1.171h0a1.592,1.592,0,0,0,.232-.018c.813-.12.788-.844.776-1.191a1.717,1.717,0,0,1,0-.252A.328.328,0,0,0,173.886,48.1Z" transform="translate(-148.908 -38.026)" fill="#0a6fe5"/>
    <path id="XMLID_9_" d="M161.636,1.915c.1.007.19.013.267.025,5.411.81,7.9,3.307,8.588,8.616a3.023,3.023,0,0,1,.015.317c.007.415.021,1.278.973,1.3h.03a.948.948,0,0,0,.706-.261,1.422,1.422,0,0,0,.259-1.11c0-.088-.008-.172-.007-.245C172.536,5.123,167.708.2,162.137.015a.4.4,0,0,0-.067,0,.478.478,0,0,1-.066,0c-.056,0-.124,0-.2-.009C161.719.007,161.62,0,161.519,0a.966.966,0,0,0-1.078.98C160.392,1.826,161.232,1.886,161.636,1.915Z" transform="translate(-144.263)" fill="#0a6fe5"/>
    <path id="XMLID_10_" d="M25.967,32.25c-.115-.086-.234-.174-.345-.261-.591-.463-1.219-.89-1.827-1.3l-.378-.257a3.834,3.834,0,0,0-2.14-.791,2.783,2.783,0,0,0-2.308,1.424,1.232,1.232,0,0,1-1.053.623,2.137,2.137,0,0,1-.848-.207,10.085,10.085,0,0,1-5.334-5.057c-.5-1.086-.335-1.8.538-2.373a2.4,2.4,0,0,0,1.353-2.106c-.074-1.326-3.08-5.318-4.346-5.771a2.53,2.53,0,0,0-1.677,0,4.825,4.825,0,0,0-3.021,2.42,4.391,4.391,0,0,0,.066,3.631A29.24,29.24,0,0,0,11.247,32a32.072,32.072,0,0,0,10.014,6.475,5.659,5.659,0,0,0,.99.287c.092.02.171.037.229.053a.394.394,0,0,0,.1.013h.031a5.664,5.664,0,0,0,4.718-3.5C27.92,33.7,26.837,32.9,25.967,32.25Z" transform="translate(0 -14.831)" fill="#0a6fe5"/>
    <path id="XMLID_11_" d="M171.364,83.556a1.146,1.146,0,0,0-1.2.672.88.88,0,0,0,.038.782,1.212,1.212,0,0,0,.908.467,2.112,2.112,0,0,1,1.991,2.087,1,1,0,0,0,.966.975h0a.976.976,0,0,0,.115-.007c.613-.071.91-.51.883-1.3a3.68,3.68,0,0,0-1.193-2.519A3.6,3.6,0,0,0,171.364,83.556Z" transform="translate(-153.179 -77.328)" fill="#0a6fe5"/>
  </g>
</svg>
